<svg xmlns="http://www.w3.org/2000/svg" viewBox="0 0 1271.3 499.9"><defs><style>.cls-1{fill:#efefef;}.cls-2{fill:#f3f3f3;}.cls-3{fill:#ebebea;}.cls-4{fill:#d9d9d9;}.cls-5{fill:#c6c6c5;}.cls-6{fill:#b1b1b1;}.cls-7{fill:#e7e7e7;}.cls-8{fill:#f0f0f0;}.cls-9{fill:#bababa;}.cls-10{fill:#fbfbfb;}.cls-11{fill:#c7c6c6;}.cls-12{fill:none;}.cls-13{fill:#fff;}.cls-14{fill:#ececec;}.cls-15{fill:#cdcdcd;}.cls-16{fill:#4b6e2b;}.cls-17{fill:#578530;}.cls-18{fill:#74b22c;}.cls-19{fill:#9bc21b;}.cls-20{fill:#e21013;}.cls-21{fill:#c81e18;}.cls-22{fill:#d8b180;}.cls-23{fill:#753b2b;}.cls-24{fill:#bfa583;}.cls-25{fill:#3b4146;}</style></defs><title>Asset 1</title><g id="Layer_2" data-name="Layer 2"><g id="Layer_1-2" data-name="Layer 1"><path class="cls-1" d="M1266.3,402.9V67.2H1015.5L1030.6,24C837.4-34.9,498.2,67.2,498.2,67.2H6.9V385.1c28.8,28.8,48.6,0,48.6,0v-11H72.6v37.7H504.4v-8.9H766.8L786.4,493l178.1-38.8L953.3,403h1.9l311.1-.1"/><path class="cls-2" d="M1271.3,62.6h-.5V408.2h.5V62.6m-1.6,346h-.5c.2.1.3.1.4.2h0l.1-.2m-158.1,0h-24.5v.6h1s1.3,0,3.6-.1c3.9-.1,10.9-.3,19.9-.5"/><path class="cls-3" d="M1089,148.37h-1.9V258.9h1.9V200l-.1.12-.3.11-.3-.06-.2-.17.2-.17a.78.78,0,0,1,.6,0l.1.17v-51.6"/><polygon class="cls-4" points="645 402.7 645 259.8 733.9 259.8 765.6 402.9 645 402.7"/><polygon class="cls-5" points="646 402.7 646 260.7 733.1 260.7 764.7 403.1 766.6 402.7 734.6 258.8 644.1 258.8 644.1 402.7 646 402.7"/><polygon class="cls-5" points="955.2 404.7 1088 404.7 1088 259.8 926.8 259.8 955.2 404.7"/><polygon class="cls-6" points="955.2 405.7 1089 405.7 1089 258.9 926.8 258.9 926.8 260.8 1087.1 260.8 1087.1 403.8 955.2 403.8 955.2 405.7"/><path class="cls-7" d="M797.4,487.5h-1.5c.1.3.2.7.3,1a7.19,7.19,0,0,1,.4,1.9l1.4-.3a8,8,0,0,0-.5-2.1,1.09,1.09,0,0,0-.1-.5"/><path class="cls-8" d="M766.8,402.9h-1.2l.1.5a3.55,3.55,0,0,1,1-.2h.1v-.3"/><path class="cls-7" d="M766.8,401.8h-.4l.2.9-.9.2h1.2l.1.3a3.17,3.17,0,0,1,1.8.7,12.6,12.6,0,0,1,2.6,2.6,6,6,0,0,0,4.8,2.8h0a6.62,6.62,0,0,0,4.1-1.6,13,13,0,0,0,1.6-1.5l-1.1-.9h0l-.1.1-.3.3a10,10,0,0,1-1,.9,5.12,5.12,0,0,1-3.2,1.3h0c-1.1,0-2.3-.5-3.7-2.2a13.15,13.15,0,0,0-2.9-2.9,4.8,4.8,0,0,0-2.8-1"/><path class="cls-9" d="M766.3,401.8a2.84,2.84,0,0,0-1.3.4l.2.8h.4l.9-.2-.2-1"/><path class="cls-7" d="M779,369.8l-1.1.8.1.1.2.2c.1.2.3.5.5.9a6.44,6.44,0,0,1,.7,2.8,3.94,3.94,0,0,1-.6,2.1,6.24,6.24,0,0,1-2.6,1.9,11.47,11.47,0,0,0-4,2.5,4.26,4.26,0,0,0-1.3,3c0,1.9,1.2,3.7,2.8,5.4a6.76,6.76,0,0,1,2,4.4,4.84,4.84,0,0,1-.9,2.7,8.16,8.16,0,0,1-3.2,2.2l.5,1.3a9.28,9.28,0,0,0,3.8-2.7,5.92,5.92,0,0,0,1.2-3.5,8.64,8.64,0,0,0-2.3-5.4c-1.5-1.7-2.5-3.3-2.4-4.5a2.61,2.61,0,0,1,.9-2,10.63,10.63,0,0,1,3.5-2.1,6.32,6.32,0,0,0,3.2-2.4,4.71,4.71,0,0,0,.9-2.9,11.47,11.47,0,0,0-1.9-4.8"/><path class="cls-7" d="M769.6,377.7a15.56,15.56,0,0,0-1.8.6,8.07,8.07,0,0,0-3.1,2.3,4.91,4.91,0,0,0-1,3,8.8,8.8,0,0,0,.8,3.3,9.34,9.34,0,0,1,1.2,4.1,2.41,2.41,0,0,1-.4,1.5,6.47,6.47,0,0,1-.8.9l.3,1.5a4.36,4.36,0,0,0,1.7-1.6,4.14,4.14,0,0,0,.6-2.3,11.16,11.16,0,0,0-1.3-4.7,6.34,6.34,0,0,1-.7-2.7,3.84,3.84,0,0,1,2.1-3.4,8.33,8.33,0,0,1,2.6-1.1h0l-.2-1.4"/><path class="cls-9" d="M764.5,393.4c-.1,0-.1.1-.2.1a9.29,9.29,0,0,1-1,.5l.3,1.4c.2-.1.3-.1.4-.2a3,3,0,0,0,.8-.4l-.3-1.4"/><path class="cls-8" d="M769.8,416.4l-.3.6-.6.9.4,1.8.9-1.2-.4-2.1"/><path class="cls-7" d="M774.9,412.1a4.59,4.59,0,0,0-3.2,1.5,12.59,12.59,0,0,0-2,2.8l.5,2.1a5.58,5.58,0,0,1,.5-.8h0a12,12,0,0,1,2-3,3.57,3.57,0,0,1,2.2-1.1h0c1.1,0,2.6.7,4.6,2.9a6,6,0,0,0,4.6,2.3h0a6.36,6.36,0,0,0,4.2-1.9,10.73,10.73,0,0,0,1.6-1.8l-1.2-.8h0l-.1.1-.3.3a9,9,0,0,1-1,1.1,5.07,5.07,0,0,1-3.3,1.5h0a4.58,4.58,0,0,1-3.5-1.9c-2.1-2.2-3.9-3.3-5.6-3.3h0"/><path class="cls-7" d="M780.2,389.9a9,9,0,0,0-.7,3.4,5.75,5.75,0,0,0,2.2,4.7,8.26,8.26,0,0,0,5.2,1.6h0a12,12,0,0,1,3.5.4,2.85,2.85,0,0,1,1.9,1.4.35.35,0,0,0,.1.2v-2.2l-.6-.3a12.72,12.72,0,0,0-5-1h0a6.88,6.88,0,0,1-4.3-1.3,4.39,4.39,0,0,1-1.6-3.6,8.82,8.82,0,0,1,.6-2.9l-1.3-.4m12.3,15.4a15.43,15.43,0,0,1-.5,1.7h0a7.44,7.44,0,0,0-.6,2.8,4.77,4.77,0,0,0,1.1,3.2h0v-7.7"/><path class="cls-7" d="M778.1,421.6h0a10,10,0,0,0-4.7,1.5l.8,1.2h.1l.2-.1a3.92,3.92,0,0,1,.9-.4,7.16,7.16,0,0,1,2.7-.6h0a3.6,3.6,0,0,1,2.2.7,5.88,5.88,0,0,1,1.9,2.8h0a11.61,11.61,0,0,0,2.4,4.2,4.4,4.4,0,0,0,3,1.4h0c1.7,0,3.3-1,4.9-2.2v-1.8c-.1.1-.3.2-.4.3-1.7,1.4-3.2,2.2-4.4,2.2h0a2.61,2.61,0,0,1-2-.9,9.51,9.51,0,0,1-2-3.7h0a6.93,6.93,0,0,0-2.4-3.4,4.45,4.45,0,0,0-3.2-1.2"/><path class="cls-7" d="M790.7,439.4h0a8.48,8.48,0,0,0-5,1.9l.8,1.1a7.13,7.13,0,0,1,4.1-1.6,3.92,3.92,0,0,1,1.8.4v-1.5a4.67,4.67,0,0,0-1.7-.3"/><path class="cls-8" d="M775.2,446.7l.4,1.8a.1.1,0,0,1,.1.1l1.2.6-.4-1.7c-.1,0-.1-.1-.2-.1-.4-.3-.8-.5-1.1-.7"/><path class="cls-7" d="M783.7,443.6h0l-.1.4c-.1.3-.2.6-.4,1.1a6.14,6.14,0,0,1-1.9,2.4,3.52,3.52,0,0,1-2.1.7,6,6,0,0,1-2.6-.7l.4,1.7a6.43,6.43,0,0,0,2.2.4h0a5.53,5.53,0,0,0,2.9-.9,6.4,6.4,0,0,0,1.8-1.9,9.53,9.53,0,0,0,1.2-2.7l-1.4-.5"/><path class="cls-8" d="M773.8,434.8a11,11,0,0,0-1,1.1l.4,2c.3-.5.6-1,.9-1.4l-.3-1.7"/><path class="cls-7" d="M778,433a5.68,5.68,0,0,0-3.7,1.4c-.2.2-.4.3-.6.5l.4,1.7a5.73,5.73,0,0,1,1.1-1.1,4.19,4.19,0,0,1,2.8-1,6.58,6.58,0,0,1,4.4,2.1l1-1A7.62,7.62,0,0,0,778,433h0"/><path class="cls-7" d="M792.5,450.2a4.59,4.59,0,0,0-1.4.7,14.06,14.06,0,0,0-2.9,2.7h0c-1.4,1.6-2.6,2-3.6,2h0a5.34,5.34,0,0,1-3.1-1.3,19,19,0,0,1-1.5-1.5h0l-1.2.8a8.47,8.47,0,0,0,1.6,1.7,6.73,6.73,0,0,0,4.2,1.7h0a6.32,6.32,0,0,0,4.7-2.5,13.54,13.54,0,0,1,2.6-2.4c.2-.1.4-.3.6-.3v-1.6"/><path class="cls-7" d="M820.6,379.3a8.9,8.9,0,0,0-3.1.8l.6,1.3h.1l.2-.1a1.45,1.45,0,0,1,.7-.2,5.41,5.41,0,0,1,1.9-.3l-.4-1.5"/><path class="cls-7" d="M902.9,401.8h0a4.57,4.57,0,0,0-3.1,1.3,15.3,15.3,0,0,0-2.5,3,6.41,6.41,0,0,1-4.2,3.1l.2,1-1.8.4a2.77,2.77,0,0,0,.9.1h0c2.4,0,4.5-1.5,6-3.8a16,16,0,0,1,2.2-2.7,3.28,3.28,0,0,1,2.2-.9,3.71,3.71,0,0,1,2,.7,12.6,12.6,0,0,1,2.6,2.6h0a6,6,0,0,0,4.8,2.8h0a6.62,6.62,0,0,0,4.1-1.6,13,13,0,0,0,1.6-1.5l-1.1-.9h0l-.1.1-.3.3a10,10,0,0,1-1,.9,5.37,5.37,0,0,1-3.2,1.3h0c-1.1,0-2.3-.5-3.7-2.2h0a13.15,13.15,0,0,0-2.9-2.9,3.94,3.94,0,0,0-2.7-1.1"/><path class="cls-7" d="M812.8,394.5l-1.3.4h0v.1a4.33,4.33,0,0,1,.1.5,8.16,8.16,0,0,1,.2,1.8,4.89,4.89,0,0,1-.8,2.9c-.6.8-1.7,1.5-3.8,1.7a10.47,10.47,0,0,0-5.3,1.5,4.26,4.26,0,0,0-1.7,3.5,11.65,11.65,0,0,0,1.2,4.5h0a7.73,7.73,0,0,1,.7,3.2,4.3,4.3,0,0,1-1.3,3.3,6.4,6.4,0,0,1-4.4,1.6l.1,1.4a8.85,8.85,0,0,0,5.3-2,5.88,5.88,0,0,0,1.8-4.4,10.8,10.8,0,0,0-.8-3.8,10.09,10.09,0,0,1-1.1-4,2.59,2.59,0,0,1,1.1-2.3,9.35,9.35,0,0,1,4.6-1.3,6.42,6.42,0,0,0,4.8-2.2,6.18,6.18,0,0,0,1.1-3.8,16.13,16.13,0,0,0-.5-2.6"/><path class="cls-7" d="M817.1,400.3a9,9,0,0,0-4.4,2.5,5.44,5.44,0,0,0-1.4,3.8,8.26,8.26,0,0,0,1.7,4.8c1.1,1.7,1.9,3.2,1.9,4.4a2.79,2.79,0,0,1-1,2.1,8.78,8.78,0,0,1-4,1.8,6.7,6.7,0,0,0-3.8,2.3,5,5,0,0,0-1,3.2,10.61,10.61,0,0,0,1.1,4.3l1.2-.7v-.1l-.1-.2a6.89,6.89,0,0,1-.3-.8,9.23,9.23,0,0,1-.5-2.5,4.2,4.2,0,0,1,.7-2.4,5,5,0,0,1,3-1.8h0a13.22,13.22,0,0,0,4.6-2.1,4.22,4.22,0,0,0,1.5-3.2c0-1.7-.9-3.4-2.1-5.2h0a7.73,7.73,0,0,1-1.4-4,4.07,4.07,0,0,1,1.1-2.9,6.78,6.78,0,0,1,3.7-2l-.5-1.3"/><path class="cls-7" d="M826.9,407.7a7.52,7.52,0,0,0-3.5,2,5.51,5.51,0,0,0-1.6,4,9.65,9.65,0,0,0,1.3,4.5,8.83,8.83,0,0,1,1.6,4.3,2.84,2.84,0,0,1-1,2.2,10.12,10.12,0,0,1-4.2,1.6,6.84,6.84,0,0,0-4.2,2.3,5.72,5.72,0,0,0-1.1,3.4,9.9,9.9,0,0,0,.8,3.8l1.3-.6v-.1l-.1-.2a1.45,1.45,0,0,1-.2-.7,7.31,7.31,0,0,1-.4-2.3,4.2,4.2,0,0,1,.8-2.6,5.6,5.6,0,0,1,3.3-1.8h0a10.86,10.86,0,0,0,4.8-1.9,3.76,3.76,0,0,0,1.5-3.2,10.51,10.51,0,0,0-1.8-5,7.16,7.16,0,0,1-1.1-3.8,4.07,4.07,0,0,1,1.2-3,5.76,5.76,0,0,1,2.8-1.6l-.2-1.3"/><path class="cls-7" d="M837,422.8l-1.6.3c.1.1.2.3.3.4a13.32,13.32,0,0,0,1.7,1.6l.8-1.2h0l-.1-.1-.3-.3a4.37,4.37,0,0,1-.8-.7"/><path class="cls-7" d="M834.5,445a5.61,5.61,0,0,0-4.7,2.2,8.26,8.26,0,0,0-1.6,5.2v.7a10.64,10.64,0,0,1-.4,3.3,2.65,2.65,0,0,1-1.4,1.8,4,4,0,0,1-1.8.4h0a11.75,11.75,0,0,1-3.6-.7,8.51,8.51,0,0,0-2.6-.5h0a4.77,4.77,0,0,0-3.2,1.1,7.61,7.61,0,0,0-1.8,2.3,9.3,9.3,0,0,0-.9,3.2l1.4.1V464l.1-.4a7,7,0,0,1,.3-1.2,6.24,6.24,0,0,1,1.7-2.8,3.46,3.46,0,0,1,2.4-.8,5.92,5.92,0,0,1,2.1.4,14.05,14.05,0,0,0,4,.8h0a4.87,4.87,0,0,0,2.5-.6,4.1,4.1,0,0,0,1.6-1.6,10.31,10.31,0,0,0,.9-4.8v-.5h0v-.2a6.88,6.88,0,0,1,1.3-4.3,4.46,4.46,0,0,1,3.7-1.6h0a9.72,9.72,0,0,1,2.7.5l.4-1.3a8.53,8.53,0,0,0-3.1-.6h0"/><path class="cls-7" d="M847.5,451.3h0l-.1.5a10.38,10.38,0,0,0-.3,1.2,5.66,5.66,0,0,1-1.8,2.8,3.37,3.37,0,0,1-2.3.8h0a6.43,6.43,0,0,1-2.2-.4h0a11.75,11.75,0,0,0-4.1-.8h0a4.87,4.87,0,0,0-2.5.6,4.36,4.36,0,0,0-1.6,1.7,11.18,11.18,0,0,0-.9,5h0a7.41,7.41,0,0,1-1.3,4.4,4.46,4.46,0,0,1-3.6,1.7,11.75,11.75,0,0,1-2.9-.5l-.5,1.3a10.51,10.51,0,0,0,3.3.6h0a5.61,5.61,0,0,0,4.7-2.2,8.36,8.36,0,0,0,1.6-5.3h0a11.61,11.61,0,0,1,.4-3.5,3.34,3.34,0,0,1,1.4-2,3,3,0,0,1,1.8-.4h0a10.7,10.7,0,0,1,3.7.8,9.72,9.72,0,0,0,2.7.5h0a4.77,4.77,0,0,0,3.2-1.1,6.57,6.57,0,0,0,1.8-2.3,8.79,8.79,0,0,0,.9-3.2l-1.4-.2"/><path class="cls-7" d="M808.4,380.9a8.58,8.58,0,0,0-.2,2.2,6.18,6.18,0,0,0,2,4.9,7.41,7.41,0,0,0,4.9,1.6,7.57,7.57,0,0,0,1.5-.1,19.53,19.53,0,0,1,2.3-.2h0a4.89,4.89,0,0,1,3,.8c.7.5,1.1,1.4,1.1,3.1a15.75,15.75,0,0,1-.3,2.8,14.05,14.05,0,0,0-.2,1.8,5.4,5.4,0,0,0,1,3.3,6.25,6.25,0,0,0,2.2,1.8.35.35,0,0,1,.2.1l-.4-1.8a2,2,0,0,1-.9-.9,4.37,4.37,0,0,1-.7-2.5,10,10,0,0,1,.2-1.6c.1-.3.1-.6.2-.9l-1.4-6.3h0a5.79,5.79,0,0,0-3.9-1.1,19.42,19.42,0,0,0-2.4.2,5.7,5.7,0,0,1-1.3.1,5.42,5.42,0,0,1-3.9-1.3,5,5,0,0,1-1.5-3.8,16.83,16.83,0,0,1,.2-2l-1.7-.2"/><path class="cls-7" d="M865.6,416.4l-1.4.3v.2a9.62,9.62,0,0,1-1.3,4.1h0a8.85,8.85,0,0,0-1,4.1,5.51,5.51,0,0,0,1.7,4.2,8.61,8.61,0,0,0,5,2.2l.2-1.4a7.13,7.13,0,0,1-4.2-1.7,4.22,4.22,0,0,1-1.3-3.2,7.52,7.52,0,0,1,.9-3.4,11.38,11.38,0,0,0,1.4-4.7v-.7"/><path class="cls-7" d="M812.9,436.6h0c-1.6,0-3.4.9-5.5,2.8a4.79,4.79,0,0,1-3.4,1.5h0a4.82,4.82,0,0,1-3.2-1.5,8.26,8.26,0,0,1-1.4-1.9h0l-1.3.7a10.44,10.44,0,0,0,1.5,2.1,6.16,6.16,0,0,0,4.4,2.1h0a6.78,6.78,0,0,0,4.3-1.9c2-1.8,3.5-2.4,4.5-2.4h0a2.63,2.63,0,0,1,2.2,1.2,10.19,10.19,0,0,1,1.8,3.3h0a9.65,9.65,0,0,0,2.5,3.6,5.94,5.94,0,0,0,3.8,1.4h0a8.51,8.51,0,0,0,5.3-2.3l-.9-1.1a6.87,6.87,0,0,1-4.3,2,4.56,4.56,0,0,1-2.9-1.1,8.07,8.07,0,0,1-2.1-3.1h0a13.23,13.23,0,0,0-2.1-3.7,3.61,3.61,0,0,0-3.2-1.7"/><path class="cls-7" d="M915.1,368.7l-1.1.8.1.1.2.2c.1.2.3.5.5.9a6.44,6.44,0,0,1,.7,2.8,3.94,3.94,0,0,1-.6,2.1,6.24,6.24,0,0,1-2.6,1.9,11.47,11.47,0,0,0-4,2.5,4.26,4.26,0,0,0-1.3,3c0,1.9,1.2,3.7,2.8,5.4a6.76,6.76,0,0,1,2,4.4,4.84,4.84,0,0,1-.9,2.7,8.16,8.16,0,0,1-3.2,2.2l.5,1.3a9.28,9.28,0,0,0,3.8-2.7,5.92,5.92,0,0,0,1.2-3.5,8.64,8.64,0,0,0-2.3-5.4c-1.5-1.7-2.5-3.3-2.4-4.5a2.61,2.61,0,0,1,.9-2,10.63,10.63,0,0,1,3.5-2.1,6.32,6.32,0,0,0,3.2-2.4,4.71,4.71,0,0,0,.9-2.9,11.47,11.47,0,0,0-1.9-4.8"/><path class="cls-7" d="M903.4,377.7a15.56,15.56,0,0,0-1.8.6,8.07,8.07,0,0,0-3.1,2.3,4.91,4.91,0,0,0-1,3,8.8,8.8,0,0,0,.8,3.3,9.34,9.34,0,0,1,1.2,4.1,2.24,2.24,0,0,1-.4,1.5,3.18,3.18,0,0,1-1,1,10.09,10.09,0,0,1-4.1,1.1,8.31,8.31,0,0,0-4.8,1.9,5.24,5.24,0,0,0-1,1.1l.5,2.3a4.52,4.52,0,0,1,1.4-2.4,7.68,7.68,0,0,1,4-1.6h0a12.71,12.71,0,0,0,3.6-.8,4.21,4.21,0,0,0,2.5-2,4.14,4.14,0,0,0,.6-2.3,11.16,11.16,0,0,0-1.3-4.7h0a6.34,6.34,0,0,1-.7-2.7,3.84,3.84,0,0,1,2.1-3.4,8.33,8.33,0,0,1,2.6-1.1h0l-.1-1.2"/><path class="cls-7" d="M824.8,352.1l-.1,1.4h.5a3.92,3.92,0,0,1,1.3.3,5.75,5.75,0,0,1,2.9,1.7,3.46,3.46,0,0,1,.8,2.4v.5l1.4-.3v-.2a4.86,4.86,0,0,0-1.1-3.3,5.6,5.6,0,0,0-2.4-1.7,8.61,8.61,0,0,0-3.3-.8"/><path class="cls-7" d="M818.3,369.1a11.21,11.21,0,0,0-.4,2.1,8.53,8.53,0,0,1-1.2,4.6,2.66,2.66,0,0,1-2.4,1.1h0a11.19,11.19,0,0,1-3.9-1,10.29,10.29,0,0,0-3.7-.8h0a6,6,0,0,0-4.4,1.8,7.76,7.76,0,0,0-2,5.3l1.4.1a6.91,6.91,0,0,1,1.6-4.4,4.52,4.52,0,0,1,3.4-1.3h0a8.07,8.07,0,0,1,3.2.7,11.65,11.65,0,0,0,4.5,1.2h.1a4,4,0,0,0,3.4-1.7,8.43,8.43,0,0,0,1.4-3.7l-1-4"/><path class="cls-7" d="M809.1,472.5l-1.4.3v.1l.1.4c0,.3.1.8.1,1.3a5.38,5.38,0,0,1-.9,3.2,4.59,4.59,0,0,1-4,1.7h-.4c-2.5,0-4.2.4-5.4,1.3a4.31,4.31,0,0,0-1.7,3.6,10.47,10.47,0,0,0,.5,3h1.5a13.2,13.2,0,0,1-.6-3,2.84,2.84,0,0,1,1.1-2.5c.8-.6,2.2-1,4.5-1h.6a5.93,5.93,0,0,0,5.1-2.3,7.26,7.26,0,0,0,1.1-4.1,10.28,10.28,0,0,0-.2-2"/><path class="cls-7" d="M911,412.1a4.59,4.59,0,0,0-3.2,1.5,13.78,13.78,0,0,0-2.3,3.3h0c-1.2,2.3-3,3.7-4.9,3.7h0c-1.4,0-2.9-.7-4.5-2.4l-1,1c1.8,1.9,3.7,2.9,5.6,2.9h0c2.6,0,4.8-1.8,6.2-4.4a12,12,0,0,1,2-3,3.57,3.57,0,0,1,2.2-1.1h0c1.1,0,2.6.7,4.6,2.9a6,6,0,0,0,4.6,2.3h0a6.36,6.36,0,0,0,4.2-1.9,10.73,10.73,0,0,0,1.6-1.8l-1.2-.8h0l-.1.1-.3.3a9,9,0,0,1-1,1.1,5.07,5.07,0,0,1-3.3,1.5h0a4.58,4.58,0,0,1-3.5-1.9c-2.1-2.2-3.9-3.3-5.7-3.3h0"/><path class="cls-7" d="M928.6,379.5a4.31,4.31,0,0,0-1.6-3.1,14.24,14.24,0,0,0-3.4-2.2h0c-2.3-1.1-3.8-2.9-3.9-4.8h0a6.72,6.72,0,0,1,2.2-4.6l-1-1c-1.8,1.9-2.8,3.8-2.7,5.7h0c.1,2.6,2,4.7,4.6,6a15,15,0,0,1,3.1,1.9,4.38,4.38,0,0,1,1.2,2.2h0c0,1.1-.6,2.6-2.7,4.7a6.06,6.06,0,0,0-2.1,4.7h0a6.4,6.4,0,0,0,2,4.1,7.21,7.21,0,0,0,1.9,1.5l.8-1.2h0l-.1-.1-.3-.3a9,9,0,0,1-1.1-1,4.94,4.94,0,0,1-1.6-3.2h0a4.71,4.71,0,0,1,1.8-3.6c1.9-2,3-3.9,2.9-5.7h0"/><path class="cls-7" d="M888.7,383.8c-.4.1-.8.1-1.2.2l.3,1.4a3.59,3.59,0,0,1,1.1-.2l-.2-1.4"/><path class="cls-7" d="M916.3,389.9a9,9,0,0,0-.7,3.4,5.75,5.75,0,0,0,2.2,4.7,8.26,8.26,0,0,0,5.2,1.6,12,12,0,0,1,3.5.4,2.85,2.85,0,0,1,1.9,1.4.35.35,0,0,0,.1.2v-2.2l-.6-.3a12.72,12.72,0,0,0-5-1h0a6.88,6.88,0,0,1-4.3-1.3,4.39,4.39,0,0,1-1.6-3.6,8.82,8.82,0,0,1,.6-2.9l-1.3-.4m12.3,15.4a15.43,15.43,0,0,1-.5,1.7,7.22,7.22,0,0,0-.5,2.8,4.77,4.77,0,0,0,1.1,3.2h0l-.1-7.7"/><path class="cls-7" d="M914.2,421.6h0a10,10,0,0,0-4.7,1.5l.8,1.2h.1l.2-.1a3.92,3.92,0,0,1,.9-.4,7.16,7.16,0,0,1,2.7-.6h0a3.6,3.6,0,0,1,2.2.7,5.88,5.88,0,0,1,1.9,2.8h0a11.61,11.61,0,0,0,2.4,4.2,4.4,4.4,0,0,0,3,1.4h0c1.7,0,3.3-1,4.9-2.2v-1.8a1.38,1.38,0,0,0-.4.3c-1.7,1.4-3.2,2.2-4.4,2.2h0a2.61,2.61,0,0,1-2-.9,9.51,9.51,0,0,1-2-3.7h0a6.93,6.93,0,0,0-2.4-3.4,4.45,4.45,0,0,0-3.2-1.2"/><path class="cls-7" d="M847,433.8l-.2,1.4h.1l.4.1a10.38,10.38,0,0,0,1.2.3,5.86,5.86,0,0,1,2.7,1.8,3.93,3.93,0,0,1,.7,2.3,5.74,5.74,0,0,1-.5,2.4,11.84,11.84,0,0,0-1,4.4,4.75,4.75,0,0,0,.6,2.4,3.81,3.81,0,0,0,1.6,1.5,10.45,10.45,0,0,0,4.9,1,7.85,7.85,0,0,1,4.3,1.4,4.33,4.33,0,0,1,1.6,3.5,8,8,0,0,1-.7,3.1l1.3.5a10.24,10.24,0,0,0,.8-3.6,5.76,5.76,0,0,0-2.1-4.6,8.43,8.43,0,0,0-5.1-1.7,15.32,15.32,0,0,1-3.4-.5,3.19,3.19,0,0,1-1.9-1.4,3.87,3.87,0,0,1-.4-1.7,12.29,12.29,0,0,1,.9-3.9,8.35,8.35,0,0,0,.6-2.9,5,5,0,0,0-1-3.1,6.25,6.25,0,0,0-2.2-1.8,14.37,14.37,0,0,0-3.2-.9"/><path class="cls-7" d="M821.1,433.3l-1.4.4a8.63,8.63,0,0,0,3.1,4.5,5.18,5.18,0,0,0,2.8.9h0a7.35,7.35,0,0,0,3.7-1.1h0a9.54,9.54,0,0,1,4.3-1.6h0a2.81,2.81,0,0,1,2.4,1.3,12.65,12.65,0,0,1,1.4,3.8h0a8.75,8.75,0,0,0,2.2,4.4,5.81,5.81,0,0,0,4.2,1.8h0a9.36,9.36,0,0,0,4.5-1.4l-.7-1.2a7,7,0,0,1-3.8,1.2,4.31,4.31,0,0,1-3.2-1.4,8,8,0,0,1-1.8-3.7,10.44,10.44,0,0,0-1.6-4.3,4.16,4.16,0,0,0-3.5-2h0a10.46,10.46,0,0,0-5.1,1.8h0a5.58,5.58,0,0,1-2.9.9,4.2,4.2,0,0,1-3.3-1.9,8.26,8.26,0,0,1-1.3-2.4h0"/><path class="cls-7" d="M796.6,464.7l-1.4.4a8.63,8.63,0,0,0,3.1,4.5,5.18,5.18,0,0,0,2.8.9h0a7.35,7.35,0,0,0,3.7-1.1h0a9.54,9.54,0,0,1,4.3-1.6h0a2.81,2.81,0,0,1,2.4,1.3,12.65,12.65,0,0,1,1.4,3.8,8.75,8.75,0,0,0,2.2,4.4,5.81,5.81,0,0,0,4.2,1.8h0a9.36,9.36,0,0,0,4.5-1.4l-.7-1.2a7,7,0,0,1-3.8,1.2,4.31,4.31,0,0,1-3.2-1.4,8,8,0,0,1-1.8-3.7,10.44,10.44,0,0,0-1.6-4.3,4.16,4.16,0,0,0-3.5-2h0a10.46,10.46,0,0,0-5.1,1.8h0a5.58,5.58,0,0,1-2.9.9h0a4.2,4.2,0,0,1-3.3-1.9,5.56,5.56,0,0,1-1.3-2.4h0"/><path class="cls-7" d="M858.1,464.4l-.9,1.1h0l.1.1.3.3a10,10,0,0,1,.9,1,6,6,0,0,1,1.2,3.2c0,1.1-.5,2.4-2.3,3.7a11.92,11.92,0,0,0-3,2.9,4.59,4.59,0,0,0-.7,1.4l1.8-.4c0-.1.1-.1.1-.2a9.52,9.52,0,0,1,2.7-2.5c2.1-1.5,2.9-3.2,2.9-4.9a7.17,7.17,0,0,0-1.5-4,14.73,14.73,0,0,0-1.6-1.7"/><path class="cls-7" d="M885.8,441.1c-2.1,1.8-3.2,3.8-3.2,5.7,0,2.5,1.6,4.7,4.1,6.1h0a13.57,13.57,0,0,1,2.8,2.1,3,3,0,0,1,1,2.2,3.71,3.71,0,0,1-.7,2,13.54,13.54,0,0,1-2.4,2.6h0a6.32,6.32,0,0,0-2.6,4.7,6.69,6.69,0,0,0,1.7,4.1c.1.1.2.2.2.3l1.6-.4-.8-.8a5.48,5.48,0,0,1-1.4-3.2c0-1.1.5-2.3,2.1-3.6a14.06,14.06,0,0,0,2.7-2.9,4.84,4.84,0,0,0,.9-2.7,4.68,4.68,0,0,0-1.4-3.1,12.77,12.77,0,0,0-3.1-2.4h0c-2.2-1.3-3.4-3.1-3.4-4.9,0-1.4.7-3,2.7-4.6l-.8-1.2"/><path class="cls-7" d="M873.9,414.5l-1.7.4a2.34,2.34,0,0,1,.7.7,3.46,3.46,0,0,1,.8,2.4,5.92,5.92,0,0,1-.4,2.1,12.39,12.39,0,0,0-.7,3.9,4.71,4.71,0,0,0,2,4.1,8.67,8.67,0,0,0,4.6,1h1.2a6.58,6.58,0,0,1,4.2,1.3,4.46,4.46,0,0,1,1.6,3.7,8.24,8.24,0,0,1-.4,2.6l1.4.4a11.77,11.77,0,0,0,.5-3.1,6.18,6.18,0,0,0-2.1-4.8,7.78,7.78,0,0,0-5.1-1.6h-1.2a6.72,6.72,0,0,1-3.8-.8,3.19,3.19,0,0,1-1.4-2.8,13.44,13.44,0,0,1,.6-3.5,7.66,7.66,0,0,0,.4-2.5,4.86,4.86,0,0,0-1.1-3.3c0-.1,0-.1-.1-.2"/><path class="cls-7" d="M851.7,427.7v.7a11.68,11.68,0,0,0,.4,2.9,5.87,5.87,0,0,0,2.3,3.2,6.05,6.05,0,0,0,3.2.9h0a8.08,8.08,0,0,0,1.5-.1,21.51,21.51,0,0,1,2.3-.2c1.8,0,2.8.4,3.3,1a3.76,3.76,0,0,1,.8,2.8,13.9,13.9,0,0,1-.3,2.7h0a13.55,13.55,0,0,0-.2,2,6.2,6.2,0,0,0,6.7,6.6h0a11.48,11.48,0,0,0,1.8-.1l-.2-1.4a9.15,9.15,0,0,1-1.6.1,5.26,5.26,0,0,1-4-1.5,5.62,5.62,0,0,1-1.3-3.8,11.14,11.14,0,0,1,.2-1.7,16,16,0,0,0,.3-3,4.77,4.77,0,0,0-5.5-5.3h0a22.86,22.86,0,0,0-2.5.2h0a5.74,5.74,0,0,1-1.2.1,5,5,0,0,1-2.4-.6,3.74,3.74,0,0,1-1.3-1.5,8.2,8.2,0,0,1-.7-3.4v-.5l-1.6-.1"/><path class="cls-7" d="M856.7,418.4l-2.3.5a9.09,9.09,0,0,1,1.8.8l.5-1.3h0m-7.6,1.7-2,.5a9.42,9.42,0,0,0-1,3.1,11.11,11.11,0,0,1-1.3,3.9,2.94,2.94,0,0,1-2.5,1.4h0a9.9,9.9,0,0,1-4.3-1.4,7.52,7.52,0,0,0-3.5-1h0a5.53,5.53,0,0,0-2.9.9,5.41,5.41,0,0,0-1.8,1.9,9.53,9.53,0,0,0-1.2,2.7l1.4.4v-.1l.1-.3a6.89,6.89,0,0,1,.4-1,7.21,7.21,0,0,1,1.9-2.4,3.52,3.52,0,0,1,2.1-.7,5,5,0,0,1,2.8.9,10.61,10.61,0,0,0,5,1.6h.1a4.2,4.2,0,0,0,3.6-2,12,12,0,0,0,1.5-4.5,7,7,0,0,1,1.6-3.9"/><path class="cls-7" d="M813.8,352.3l-1.4.4a8.68,8.68,0,0,1,.4,2.6,4.46,4.46,0,0,1-1.6,3.7,6.78,6.78,0,0,1-4.2,1.3h-1.4a8.11,8.11,0,0,0-4.5,1,4.43,4.43,0,0,0-2,4,12.39,12.39,0,0,0,.7,3.9h0a8.79,8.79,0,0,1,.3,2,3.93,3.93,0,0,1-.7,2.3,3.71,3.71,0,0,1-1.7,1.3,9.32,9.32,0,0,1-3,.8h0l.1,1.4a8.88,8.88,0,0,0,5.7-2.6,4.86,4.86,0,0,0,1.1-3.3,8.08,8.08,0,0,0-.4-2.5h0a13.49,13.49,0,0,1-.6-3.4,2.84,2.84,0,0,1,1.3-2.8,7.26,7.26,0,0,1,3.7-.8h1.5a7.78,7.78,0,0,0,5.1-1.6,6,6,0,0,0,2.1-4.8,8,8,0,0,0-.5-2.9"/><path class="cls-7" d="M856.6,459a5.37,5.37,0,0,0-3.5,1.1,6.58,6.58,0,0,0-2.3,4.3h0a9.38,9.38,0,0,1-1.6,4.3,2.79,2.79,0,0,1-2.2,1.1h0a9.73,9.73,0,0,1-4.2-1.5,8.76,8.76,0,0,0-4.3-1.2h0a5.91,5.91,0,0,0-4.1,1.6,9,9,0,0,0-2.3,4.8l1.4.2a6.54,6.54,0,0,1,1.9-4,4.47,4.47,0,0,1,3.1-1.2h0a8.16,8.16,0,0,1,3.7,1.1,12.5,12.5,0,0,0,4.9,1.7h0a3.88,3.88,0,0,0,3.2-1.6,10.67,10.67,0,0,0,1.9-4.9,5.4,5.4,0,0,1,1.7-3.4,4.2,4.2,0,0,1,2.6-.8h0a9.34,9.34,0,0,1,3,.6h.1l.6-1.3c0-.2-1.6-.9-3.6-.9"/><path class="cls-7" d="M926.8,439.4h0a8.48,8.48,0,0,0-5,1.9l.8,1.1a7.13,7.13,0,0,1,4.1-1.6,3.92,3.92,0,0,1,1.8.4v-1.5a4.31,4.31,0,0,0-1.7-.3"/><path class="cls-7" d="M919.8,443.6h0l-.1.4c-.1.3-.2.6-.4,1.1a6.14,6.14,0,0,1-1.9,2.4,3.52,3.52,0,0,1-2.1.7,5.73,5.73,0,0,1-2.8-.8,12,12,0,0,0-4.9-1.6h-.1a4.08,4.08,0,0,0-3.6,2,10.37,10.37,0,0,0-1.4,4.5,7.39,7.39,0,0,1-1.7,3.9,4.22,4.22,0,0,1-3.3,1.4h0a8.2,8.2,0,0,1-3.6-1l-.7,1.2a9.36,9.36,0,0,0,4.3,1.2h0a5.75,5.75,0,0,0,4.3-1.9,8.07,8.07,0,0,0,2-4.6,12.63,12.63,0,0,1,1.2-4,2.74,2.74,0,0,1,2.5-1.4h0a9.22,9.22,0,0,1,4.2,1.4,7.22,7.22,0,0,0,3.5,1h0a5.53,5.53,0,0,0,2.9-.9,6.4,6.4,0,0,0,1.8-1.9,9.53,9.53,0,0,0,1.2-2.7l-1.3-.4"/><path class="cls-7" d="M914.2,433a5.68,5.68,0,0,0-3.7,1.4,10.34,10.34,0,0,0-2.6,3.5,11.74,11.74,0,0,1-1.9,3.2,2.78,2.78,0,0,1-2.2,1.1h0c-1.1,0-2.6-.7-4.6-2.5a6.48,6.48,0,0,0-4.4-2h0a5.93,5.93,0,0,0-4.3,2.1,8.63,8.63,0,0,0-1.5,2l1.2.7h0l.1-.1.3-.4a9,9,0,0,1,1-1.2,4.55,4.55,0,0,1,3.3-1.6h0a5,5,0,0,1,3.4,1.6c2.1,2,3.9,2.9,5.5,2.9h0a4.37,4.37,0,0,0,3.3-1.6,11.4,11.4,0,0,0,2.1-3.6h0a8.84,8.84,0,0,1,2.1-3,4.38,4.38,0,0,1,2.8-1,6.58,6.58,0,0,1,4.4,2.1l1-1a7.42,7.42,0,0,0-5.3-2.6h0"/><path class="cls-7" d="M881.3,434.4a8.45,8.45,0,0,0-4.4,2.4,5.78,5.78,0,0,0-1.5,3.9,8.57,8.57,0,0,0,1.6,4.7h0a9.08,9.08,0,0,1,1.8,4.4,2.79,2.79,0,0,1-1,2.1,8.78,8.78,0,0,1-4,1.8,7,7,0,0,0-3.9,2.3,5.13,5.13,0,0,0-1,3.3,8.94,8.94,0,0,0,1.1,4.2l1.2-.7v-.1l-.1-.2a6.89,6.89,0,0,1-.3-.8,8.6,8.6,0,0,1-.4-2.4,4,4,0,0,1,.7-2.4,5.29,5.29,0,0,1,3.1-1.8,10.38,10.38,0,0,0,4.6-2.1,4.22,4.22,0,0,0,1.5-3.2c0-1.7-.9-3.4-2-5.2h0a7.27,7.27,0,0,1-1.3-4,3.91,3.91,0,0,1,1.1-2.9,7.62,7.62,0,0,1,3.7-2l-.5-1.3"/><path class="cls-7" d="M881.8,414.9c-1,0-1.7.1-1.8.1l.3,1.4h.4c.3,0,.6-.1,1.1-.1h0a6.69,6.69,0,0,1,3.3.8c1,.7,1.7,1.7,1.7,3.9v.5h0v1a8.18,8.18,0,0,0,1.3,5.1,4.42,4.42,0,0,0,3.6,1.5h0a14.63,14.63,0,0,0,3.9-.7,7.66,7.66,0,0,1,2.5-.4,4.9,4.9,0,0,1,3.6,1.4,5.85,5.85,0,0,1,1.5,4.3v.6l1.4.1v-.7a7.28,7.28,0,0,0-1.9-5.3,6.34,6.34,0,0,0-4.6-1.8h0a15.51,15.51,0,0,0-2.9.4,12.19,12.19,0,0,1-3.4.6h0a2.92,2.92,0,0,1-2.5-1c-.6-.7-1-2-1-4.2v-1h0v-.5a5.74,5.74,0,0,0-2.4-5.1,7.85,7.85,0,0,0-4.1-.9"/><path class="cls-7" d="M928.6,450.2a4.59,4.59,0,0,0-1.4.7,14.06,14.06,0,0,0-2.9,2.7h0c-1.4,1.6-2.6,2-3.6,2h0a5.34,5.34,0,0,1-3.1-1.3,19,19,0,0,1-1.5-1.5h0l-1.2.8a8.47,8.47,0,0,0,1.6,1.7,6.73,6.73,0,0,0,4.2,1.7h0a6.32,6.32,0,0,0,4.7-2.5,13.54,13.54,0,0,1,2.6-2.4c.2-.1.4-.3.6-.3v-1.6"/><path class="cls-7" d="M840.4,473a8,8,0,0,0-2.7,5.5,6,6,0,0,0,.8,2.9l1.5-.3a4.63,4.63,0,0,1-.8-2.5,6.3,6.3,0,0,1,2.3-4.5l-1.1-1.1"/><path class="cls-7" d="M830.9,475.4l-1.4.4h0v.1a4.33,4.33,0,0,1,.1.5,7,7,0,0,1,.2,1.6,4.63,4.63,0,0,1-.9,3c-.7.9-1.7,1.6-3.9,1.7h0a9.4,9.4,0,0,0-5.4,1.5,3.74,3.74,0,0,0-1.3,1.5l2.3-.5a8.56,8.56,0,0,1,4.5-1.1h.7l1.8-.4a4.79,4.79,0,0,0,2.5-1.8,6.47,6.47,0,0,0,1.1-3.9,7.48,7.48,0,0,0-.3-2.6"/><path class="cls-7" d="M792.5,399.5v2.2a3.34,3.34,0,0,1,.3,1.5,8.08,8.08,0,0,1-.3,2v7.7a6,6,0,0,0,2.2,1.7,9.06,9.06,0,0,0,3.1.9l.2-1.4h-.1l-.4-.1a10.38,10.38,0,0,0-1.2-.3,5,5,0,0,1-2.7-1.8,3.37,3.37,0,0,1-.8-2.3,5.63,5.63,0,0,1,.5-2.3h0a12.71,12.71,0,0,0,.9-4.2,4.87,4.87,0,0,0-.6-2.5l-1.1-1.1"/><path class="cls-7" d="M797.2,426.3h0a8.26,8.26,0,0,0-4.8,1.7v1.8c.1-.1.3-.2.4-.4a6.72,6.72,0,0,1,4.3-1.8h0a3.94,3.94,0,0,1,2.7,1A8.33,8.33,0,0,1,802,432l1.3-.5a8.46,8.46,0,0,0-2.6-4,5.31,5.31,0,0,0-3.5-1.2"/><path class="cls-7" d="M792.5,439.7v1.5a8.34,8.34,0,0,1,1.2.8,8.51,8.51,0,0,1,2,3.4,12.35,12.35,0,0,0,1.9,4,4.17,4.17,0,0,0,3.4,1.8h0c1.5,0,3.2-.7,5.4-2.3h0a5.82,5.82,0,0,1,3.2-1.3h0a4.44,4.44,0,0,1,3.2,1.7,10.07,10.07,0,0,1,1.4,2.1h0l1.3-.5a10.44,10.44,0,0,0-1.4-2.3,5.62,5.62,0,0,0-4.5-2.4h0a7.13,7.13,0,0,0-4,1.5c-2,1.5-3.5,2-4.5,2h0a2.8,2.8,0,0,1-2.3-1.2,11.43,11.43,0,0,1-1.6-3.5,7.18,7.18,0,0,0-4.7-5.3"/><path class="cls-7" d="M798.8,387.7h0a9.69,9.69,0,0,0-2.3.3,17.75,17.75,0,0,1-3,.4,3.08,3.08,0,0,1-1-.1v1.4c.3,0,.6.1,1,.1h0a19.77,19.77,0,0,0,3.3-.4,7.14,7.14,0,0,1,2-.2,5.08,5.08,0,0,1,3.7,1.3,5.51,5.51,0,0,1,1.5,4.1,6.15,6.15,0,0,1-.1,1.3l1.4.2a7.08,7.08,0,0,0,.1-1.4,6.94,6.94,0,0,0-1.9-5.1,6,6,0,0,0-4.7-1.9"/><path class="cls-7" d="M793.8,450h0a5.85,5.85,0,0,0-1.3.2v1.5a3.45,3.45,0,0,1,1.3-.3,3.15,3.15,0,0,1,2.2,1,17,17,0,0,1,2.1,2.8c1.4,2.5,3.6,4.2,6.1,4.2h0c1.9,0,3.9-1,5.7-3.1l-1.1-.9c-1.6,1.9-3.2,2.6-4.6,2.6h0c-1.8,0-3.6-1.2-4.9-3.5h0a15.74,15.74,0,0,0-2.4-3.2,4.85,4.85,0,0,0-3.1-1.3"/><path class="cls-7" d="M797.4,351.4h-1.5c.1.3.2.7.3,1a9.12,9.12,0,0,1,.5,2.7,4.9,4.9,0,0,1-1.4,3.6,5.62,5.62,0,0,1-2.8,1.3v1.4a6.4,6.4,0,0,0,3.8-1.7,6,6,0,0,0,1.8-4.6,12.48,12.48,0,0,0-.5-3.2c-.1-.1-.1-.3-.2-.5"/><path class="cls-7" d="M861.5,351.4h-1.4a.37.37,0,0,1,.1.3l1.3-.3"/><path class="cls-7" d="M847.7,351.4h-1.6a2.3,2.3,0,0,1,.4,1.4,4,4,0,0,1-.7,2.1l1.8-.4a5.08,5.08,0,0,0,.3-1.7,2.2,2.2,0,0,0-.2-1.4"/><path class="cls-7" d="M819.4,351.4H818v.2a12.38,12.38,0,0,0,1.1,4.4h0a8.87,8.87,0,0,1,.6,3,4.67,4.67,0,0,1-.3,1.7l1.6-.3a5.7,5.7,0,0,0,.1-1.3,11.49,11.49,0,0,0-.7-3.6,11.19,11.19,0,0,1-1-3.9v-.2m-2.4,12a8.35,8.35,0,0,1-3.1.7l.1,1.4a10.09,10.09,0,0,0,3.3-.7l-.3-1.4"/><path class="cls-7" d="M948.9,394.5l-1.3.4h0v.1a4.33,4.33,0,0,1,.1.5,8.16,8.16,0,0,1,.2,1.8,4.89,4.89,0,0,1-.8,2.9c-.6.8-1.7,1.5-3.8,1.7a10.47,10.47,0,0,0-5.3,1.5,4.26,4.26,0,0,0-1.7,3.5,11.65,11.65,0,0,0,1.2,4.5h0a7.73,7.73,0,0,1,.7,3.2,4.3,4.3,0,0,1-1.3,3.3,6.4,6.4,0,0,1-4.4,1.6l.1,1.4a8.85,8.85,0,0,0,5.3-2,5.88,5.88,0,0,0,1.8-4.4,10.8,10.8,0,0,0-.8-3.8h0a10.09,10.09,0,0,1-1.1-4,2.59,2.59,0,0,1,1.1-2.3,9.35,9.35,0,0,1,4.6-1.3,6.42,6.42,0,0,0,4.8-2.2,6.18,6.18,0,0,0,1.1-3.8,16.13,16.13,0,0,0-.5-2.6"/><path class="cls-7" d="M951.1,401.1a6.45,6.45,0,0,0-2.2,1.7,5.44,5.44,0,0,0-1.4,3.8,8.26,8.26,0,0,0,1.7,4.8c1.1,1.7,1.9,3.2,1.9,4.4a2.79,2.79,0,0,1-1,2.1,8.78,8.78,0,0,1-4,1.8,6.7,6.7,0,0,0-3.8,2.3,5,5,0,0,0-1,3.2,10.61,10.61,0,0,0,1.1,4.3l1.2-.7v-.1l-.1-.2a6.89,6.89,0,0,1-.3-.8,9.23,9.23,0,0,1-.5-2.5,4.2,4.2,0,0,1,.7-2.4,5,5,0,0,1,3-1.8h0a13.22,13.22,0,0,0,4.6-2.1,4.22,4.22,0,0,0,1.5-3.2c0-1.7-.9-3.4-2.1-5.2a7.73,7.73,0,0,1-1.4-4,4.07,4.07,0,0,1,1.1-2.9,9.83,9.83,0,0,1,1.5-1.2l-.5-1.3"/><path class="cls-7" d="M956.5,426.1c-.3.1-.6.1-.9.2a6.84,6.84,0,0,0-4.2,2.3,5.72,5.72,0,0,0-1.1,3.4,9.9,9.9,0,0,0,.8,3.8l1.3-.6v-.1l-.1-.2a1.45,1.45,0,0,1-.2-.7,7.31,7.31,0,0,1-.4-2.3,4.2,4.2,0,0,1,.8-2.6,5.6,5.6,0,0,1,3.3-1.8c.3-.1.6-.1.9-.2l-.2-1.2"/><path class="cls-7" d="M944.6,380.9a8.58,8.58,0,0,0-.2,2.2,6.18,6.18,0,0,0,2,4.9,4.77,4.77,0,0,0,2.2,1.2l-.4-1.7-.9-.6a5,5,0,0,1-1.5-3.8,16.83,16.83,0,0,1,.2-2l-1.4-.2"/><path class="cls-7" d="M949.1,436.6h0c-1.6,0-3.4.9-5.5,2.8a4.79,4.79,0,0,1-3.4,1.5h0a4.82,4.82,0,0,1-3.2-1.5,8.26,8.26,0,0,1-1.4-1.9h0l-1.3.7a10.44,10.44,0,0,0,1.5,2.1,6.16,6.16,0,0,0,4.4,2.1h0a6.78,6.78,0,0,0,4.3-1.9c2-1.8,3.5-2.4,4.5-2.4h0a2.63,2.63,0,0,1,2.2,1.2,10.19,10.19,0,0,1,1.8,3.3h0a9.65,9.65,0,0,0,2.5,3.6,5.94,5.94,0,0,0,3.8,1.4h0a5.66,5.66,0,0,0,1.8-.3l-.3-1.4a3.64,3.64,0,0,1-1.4.2,4.56,4.56,0,0,1-2.9-1.1,8.07,8.07,0,0,1-2.1-3.1h0a13.23,13.23,0,0,0-2.1-3.7,4,4,0,0,0-3.2-1.6"/><path class="cls-7" d="M942.7,375a6,6,0,0,0-4.4,1.8,7.76,7.76,0,0,0-2,5.3l1.4.1a6.91,6.91,0,0,1,1.6-4.4,4.52,4.52,0,0,1,3.4-1.3h0a7.3,7.3,0,0,1,3.1.7l-.4-1.6a6.26,6.26,0,0,0-2.7-.6h0"/><path class="cls-7" d="M957.3,433.3l-1.4.4a8.63,8.63,0,0,0,3.1,4.5c.1,0,.1.1.2.1l-.5-2.3-.2-.2a6.35,6.35,0,0,1-1.2-2.5h0"/><path class="cls-7" d="M941.8,360.2a8.11,8.11,0,0,0-4.5,1,4.43,4.43,0,0,0-2,4,12.39,12.39,0,0,0,.7,3.9,8.79,8.79,0,0,1,.3,2,3.93,3.93,0,0,1-.7,2.3,3.71,3.71,0,0,1-1.7,1.3,9.32,9.32,0,0,1-3,.8h0l.1,1.4a8.88,8.88,0,0,0,5.7-2.6,4.86,4.86,0,0,0,1.1-3.3,8.08,8.08,0,0,0-.4-2.5,13.49,13.49,0,0,1-.6-3.4,2.84,2.84,0,0,1,1.3-2.8,7.26,7.26,0,0,1,3.7-.8h.8l-.3-1.4a1.34,1.34,0,0,1-.5.1"/><path class="cls-7" d="M928.6,399.5v2.2a3.34,3.34,0,0,1,.3,1.5,8.08,8.08,0,0,1-.3,2v7.7a6,6,0,0,0,2.2,1.7,9.06,9.06,0,0,0,3.1.9l.2-1.4H934l-.4-.1a10.38,10.38,0,0,0-1.2-.3,5,5,0,0,1-2.7-1.8,3.37,3.37,0,0,1-.8-2.3,5.63,5.63,0,0,1,.5-2.3,12.71,12.71,0,0,0,.9-4.2,4.87,4.87,0,0,0-.6-2.5l-1.1-1.1"/><path class="cls-7" d="M933.4,426.3h0a8.26,8.26,0,0,0-4.8,1.7v1.8c.1-.1.3-.2.4-.4a6.72,6.72,0,0,1,4.3-1.8h0a3.94,3.94,0,0,1,2.7,1,8.33,8.33,0,0,1,2.2,3.4l1.3-.5a8.46,8.46,0,0,0-2.6-4,5.71,5.71,0,0,0-3.5-1.2"/><path class="cls-7" d="M928.6,439.7v1.5a8.34,8.34,0,0,1,1.2.8,8.51,8.51,0,0,1,2,3.4,12.35,12.35,0,0,0,1.9,4,4.17,4.17,0,0,0,3.4,1.8h0c1.5,0,3.2-.7,5.4-2.3h0a5.82,5.82,0,0,1,3.2-1.3h0a4.44,4.44,0,0,1,3.2,1.7,10.07,10.07,0,0,1,1.4,2.1h0l1.3-.5a10.44,10.44,0,0,0-1.4-2.3,5.62,5.62,0,0,0-4.5-2.4h0a7.13,7.13,0,0,0-4,1.5c-2,1.5-3.5,2-4.5,2h0a2.8,2.8,0,0,1-2.3-1.2,11.43,11.43,0,0,1-1.6-3.5,7.18,7.18,0,0,0-4.7-5.3"/><path class="cls-7" d="M934.9,387.7h0a9.69,9.69,0,0,0-2.3.3h0a17.75,17.75,0,0,1-3,.4,3.08,3.08,0,0,1-1-.1v1.4c.3,0,.6.1,1,.1h0a19.77,19.77,0,0,0,3.3-.4h0a7.14,7.14,0,0,1,2-.2,5.08,5.08,0,0,1,3.7,1.3,5.51,5.51,0,0,1,1.5,4.1,6.15,6.15,0,0,1-.1,1.3l1.4.2a7.08,7.08,0,0,0,.1-1.4,6.94,6.94,0,0,0-1.9-5.1,5.91,5.91,0,0,0-4.7-1.9"/><path class="cls-7" d="M929.9,450h0a5.85,5.85,0,0,0-1.3.2v1.5a3.45,3.45,0,0,1,1.3-.3,3.15,3.15,0,0,1,2.2,1,14.52,14.52,0,0,1,2.1,2.9,7.83,7.83,0,0,0,5.1,4.1l4.4-1a10.65,10.65,0,0,0,2.3-2l-1.1-.9c-1.6,1.9-3.2,2.6-4.6,2.6h0c-1.8,0-3.6-1.2-4.9-3.5h0a15.74,15.74,0,0,0-2.4-3.2,4.48,4.48,0,0,0-3.1-1.4"/><path class="cls-7" d="M933.5,351.4H932c.1.3.2.7.3,1a9.12,9.12,0,0,1,.5,2.7,4.9,4.9,0,0,1-1.4,3.6,5.59,5.59,0,0,1-2.9,1.3v1.4a6.4,6.4,0,0,0,3.8-1.7,6,6,0,0,0,1.8-4.6,12.48,12.48,0,0,0-.5-3.2,1.09,1.09,0,0,0-.1-.5"/><path class="cls-7" d="M749.8,314.5l-1.6.4a9.16,9.16,0,0,0,2.4,1.9,13.57,13.57,0,0,1,2.8,2.1,3,3,0,0,1,1,2.2,3.71,3.71,0,0,1-.7,2,13.54,13.54,0,0,1-2.4,2.6,10.61,10.61,0,0,0-1.5,1.5l.5,2.1a5.65,5.65,0,0,1,1.9-2.6,14.06,14.06,0,0,0,2.7-2.9,4.84,4.84,0,0,0,.9-2.7,4.68,4.68,0,0,0-1.4-3.1,12.77,12.77,0,0,0-3.1-2.4,9.73,9.73,0,0,1-1.5-1.1m1.3,18.6.6,2.7c.2.2.3.2.3.3l.8-1.1h0l-.1-.1-.3-.3a9.32,9.32,0,0,1-1-1c-.1-.2-.2-.3-.3-.5"/><path class="cls-9" d="M749.8,327.2a7,7,0,0,0-.8,1.4l1.2,5.7c0,.1.1.1.1.2a7.76,7.76,0,0,0,1.3,1.3l-.6-2.7a4.78,4.78,0,0,1-1-2.8,2.34,2.34,0,0,1,.2-1.1l-.4-2"/><path class="cls-7" d="M767.1,324.4h0a7.11,7.11,0,0,0-4,1.4,6.14,6.14,0,0,0-1.6,1.4l1,1h0l.1-.1.3-.3a11.49,11.49,0,0,1,1-.8,5.54,5.54,0,0,1,3.1-1.1h0c1.2,0,2.5.5,3.8,2.5a13.25,13.25,0,0,0,2.8,3.2,4.73,4.73,0,0,0,2.8,1.1h0a4.94,4.94,0,0,0,3-1.2,13.11,13.11,0,0,0,2.5-2.7c1.4-1.8,3.1-2.9,4.8-2.9h0c1.6,0,3.2.9,4.8,3.2l.9-.6v-.7c-1.6-2.3-3.6-3.4-5.6-3.4h0a7.67,7.67,0,0,0-5.9,3.4,10.64,10.64,0,0,1-2.3,2.4,3.7,3.7,0,0,1-2.1.9,3.23,3.23,0,0,1-2-.8,14.62,14.62,0,0,1-2.5-2.8,5.86,5.86,0,0,0-4.9-3.1"/><path class="cls-7" d="M783.7,307.4h0l-.1.4c-.1.3-.2.6-.4,1.1a6.14,6.14,0,0,1-1.9,2.4,3.52,3.52,0,0,1-2.1.7,5.73,5.73,0,0,1-2.8-.8,11.65,11.65,0,0,0-4.3-1.5l-3,.7a4,4,0,0,0-1.3,1.3,10.37,10.37,0,0,0-1.4,4.5,7.39,7.39,0,0,1-1.7,3.9,4.22,4.22,0,0,1-3.3,1.4h0a8.2,8.2,0,0,1-3.6-1l-.7,1.2a9.36,9.36,0,0,0,4.3,1.2h0a5.75,5.75,0,0,0,4.3-1.9,8.07,8.07,0,0,0,2-4.6,12.63,12.63,0,0,1,1.2-4,2.74,2.74,0,0,1,2.5-1.4h0a9.22,9.22,0,0,1,4.2,1.4,7.22,7.22,0,0,0,3.5,1h0a5.53,5.53,0,0,0,2.9-.9,6.4,6.4,0,0,0,1.8-1.9,9.53,9.53,0,0,0,1.2-2.7l-1.3-.5"/><path class="cls-7" d="M792.5,314.1a4.59,4.59,0,0,0-1.4.7,14.06,14.06,0,0,0-2.9,2.7h0c-1.4,1.6-2.6,2-3.6,2h0a5.34,5.34,0,0,1-3.1-1.3,19,19,0,0,1-1.5-1.5h0l-1.2.8a8.47,8.47,0,0,0,1.6,1.7,6.73,6.73,0,0,0,4.2,1.7h0a6.32,6.32,0,0,0,4.7-2.5,13.54,13.54,0,0,1,2.6-2.4c.2-.1.4-.3.6-.3v-1.6"/><path class="cls-7" d="M773.6,368.5h0a7,7,0,0,0-.5,4.2,4.86,4.86,0,0,0,.6,2l1.3-.5h0v-.1l-.1-.4c-.1-.3-.2-.8-.3-1.2a5.43,5.43,0,0,1,.4-3.3h0c.5-1.1,1.5-2,3.9-2.3a12,12,0,0,0,4.1-1.1,4.81,4.81,0,0,0,2.2-2h0a4.41,4.41,0,0,0,.2-3.2,13.1,13.1,0,0,0-1.3-3.4c-1-2-1.3-4.1-.5-5.6h0c.7-1.4,2.2-2.5,5-2.9l-.1-1.1-.6-.3a6.88,6.88,0,0,0-5.5,3.6h0c-1,2-.7,4.4.5,6.8a10.25,10.25,0,0,1,1.2,3.1,3.47,3.47,0,0,1-.1,2.3,3.36,3.36,0,0,1-1.6,1.5,11.28,11.28,0,0,1-3.6,1,5.71,5.71,0,0,0-5.2,2.9"/><path class="cls-7" d="M765.6,346.2h0l.3.3a5.93,5.93,0,0,1,.8.8,6.07,6.07,0,0,1,1.3,2.8,3.49,3.49,0,0,1-.3,2.2,6,6,0,0,1-1.9,2.2,12,12,0,0,0-3.2,3.2l-.7,3a4.92,4.92,0,0,0,.6,1.7,10.51,10.51,0,0,0,3.4,3.2,7.56,7.56,0,0,1,2.8,3.2,4.18,4.18,0,0,1-.2,3.6h0a7,7,0,0,1-2.5,2.8l.8,1.2a9.46,9.46,0,0,0,3-3.4h0a5.92,5.92,0,0,0,.2-4.7,8,8,0,0,0-3.3-3.8,14.45,14.45,0,0,1-3.1-2.8,3,3,0,0,1-.2-2.9h0a9,9,0,0,1,3.1-3.2,7.44,7.44,0,0,0,2.4-2.7h0a5.45,5.45,0,0,0,.5-3,7.51,7.51,0,0,0-.9-2.4,12.46,12.46,0,0,0-1.9-2.3l-1,1"/><path class="cls-7" d="M789.8,332h0l.1.4c0,.3.1.6.1,1.2a5.88,5.88,0,0,1-.8,3,3.89,3.89,0,0,1-1.6,1.5,6,6,0,0,1-2.9.4,11.88,11.88,0,0,0-4.5.4l-2.5,1.8a5.09,5.09,0,0,0-.7,1.7,9.86,9.86,0,0,0,.5,4.7,7,7,0,0,1,0,4.3A4.53,4.53,0,0,1,775,354h0a7.87,7.87,0,0,1-3.7.5l-.2,1.4a10,10,0,0,0,4.4-.6h0a5.82,5.82,0,0,0,3.2-3.5,8.51,8.51,0,0,0,0-5,10.62,10.62,0,0,1-.5-4.1,2.73,2.73,0,0,1,1.7-2.3h0a9.18,9.18,0,0,1,4.4-.4,6.72,6.72,0,0,0,3.6-.5h0a5,5,0,0,0,2.3-2,6.91,6.91,0,0,0,.9-2.5,8.48,8.48,0,0,0,0-3h-1.3"/><path class="cls-7" d="M769,330.1l-1.4-.1v1.6a6.71,6.71,0,0,1-1,2.9,3.15,3.15,0,0,1-1.8,1.3,4.65,4.65,0,0,1-2.9.1,11.72,11.72,0,0,0-4.6,0l-2.6,1.6a3.46,3.46,0,0,0-.8,1.6,10.73,10.73,0,0,0,.1,4.7,8.1,8.1,0,0,1-.1,3.5,11.69,11.69,0,0,1,.6,2,4.35,4.35,0,0,0,.4-.7,7.69,7.69,0,0,0,.4-5,12,12,0,0,1-.1-4.2,2.87,2.87,0,0,1,1.9-2.1,9,9,0,0,1,4.4,0,7,7,0,0,0,3.6-.2,5.77,5.77,0,0,0,2.5-1.8,6.44,6.44,0,0,0,1.1-2.4A9.32,9.32,0,0,0,769,330.1Z"/><path class="cls-7" d="M834.5,308.9a5.61,5.61,0,0,0-4.7,2.2,8.26,8.26,0,0,0-1.6,5.2v.7a10.64,10.64,0,0,1-.4,3.3,2.65,2.65,0,0,1-1.4,1.8,4,4,0,0,1-1.8.4h0a11.75,11.75,0,0,1-3.6-.7,8.51,8.51,0,0,0-2.6-.5h0a4.77,4.77,0,0,0-3.2,1.1,7.61,7.61,0,0,0-1.8,2.3,9.3,9.3,0,0,0-.9,3.2l1.4.1v-.1l.1-.4a7,7,0,0,1,.3-1.2,6.24,6.24,0,0,1,1.7-2.8,3.46,3.46,0,0,1,2.4-.8,5.92,5.92,0,0,1,2.1.4,14.05,14.05,0,0,0,4,.8h0a4.87,4.87,0,0,0,2.5-.6,4.1,4.1,0,0,0,1.6-1.6,10.31,10.31,0,0,0,.9-4.8v-.5h0v-.2a6.88,6.88,0,0,1,1.3-4.3,4.46,4.46,0,0,1,3.7-1.6,9.72,9.72,0,0,1,2.7.5l.4-1.3a8.53,8.53,0,0,0-3.1-.6h0"/><path class="cls-7" d="M847.5,315.1h0l-.1.5a10.38,10.38,0,0,0-.3,1.2,5.66,5.66,0,0,1-1.8,2.8,3.37,3.37,0,0,1-2.3.8,6.43,6.43,0,0,1-2.2-.4h0a11.75,11.75,0,0,0-4.1-.8h0a4.87,4.87,0,0,0-2.5.6,4.36,4.36,0,0,0-1.6,1.7,11.18,11.18,0,0,0-.9,5h0a7.41,7.41,0,0,1-1.3,4.4,4.46,4.46,0,0,1-3.6,1.7,11.75,11.75,0,0,1-2.9-.5l-.5,1.3a10.51,10.51,0,0,0,3.3.6h0a5.61,5.61,0,0,0,4.7-2.2,8.36,8.36,0,0,0,1.6-5.3h0a11.61,11.61,0,0,1,.4-3.5,3.34,3.34,0,0,1,1.4-2,3,3,0,0,1,1.8-.4h0a10.7,10.7,0,0,1,3.7.8,9.72,9.72,0,0,0,2.7.5h0a4.77,4.77,0,0,0,3.2-1.1,6.57,6.57,0,0,0,1.8-2.3,8.79,8.79,0,0,0,.9-3.2l-1.4-.2"/><path class="cls-7" d="M863.4,289.7l-1.4.3a5.19,5.19,0,0,0,1.6,3.1,8.61,8.61,0,0,0,5,2.2l.2-1.4a7.13,7.13,0,0,1-4.2-1.7,4,4,0,0,1-1.2-2.5"/><path class="cls-7" d="M813.7,300.5l-3.8.8a12.71,12.71,0,0,0-2.5,1.9,4.79,4.79,0,0,1-3.4,1.5h0a5,5,0,0,1-3.1-1.4l-1.6.4a1.38,1.38,0,0,1,.3.4,6.16,6.16,0,0,0,4.4,2.1h0a6.78,6.78,0,0,0,4.3-1.9c2-1.8,3.5-2.4,4.5-2.4h0a2.63,2.63,0,0,1,2.2,1.2,10.19,10.19,0,0,1,1.8,3.3h0a9.65,9.65,0,0,0,2.5,3.6,5.94,5.94,0,0,0,3.8,1.4h0a8.51,8.51,0,0,0,5.3-2.3l-.9-1.1a6.87,6.87,0,0,1-4.3,2,4.56,4.56,0,0,1-2.9-1.1,8.07,8.07,0,0,1-2.1-3.1h0a13.23,13.23,0,0,0-2.1-3.7,4.12,4.12,0,0,0-2.4-1.6"/><path class="cls-7" d="M809.1,336.4l-1.4.3v.1l.1.4c0,.3.1.8.1,1.3a5.38,5.38,0,0,1-.9,3.2,4.59,4.59,0,0,1-4,1.7h-.4c-2.5,0-4.2.4-5.4,1.3a4.31,4.31,0,0,0-1.7,3.6,10.47,10.47,0,0,0,.5,3h1.5a13.2,13.2,0,0,1-.6-3,2.84,2.84,0,0,1,1.1-2.5c.8-.6,2.2-1,4.5-1h.6a5.93,5.93,0,0,0,5.1-2.3,7.26,7.26,0,0,0,1.1-4.1,10.28,10.28,0,0,0-.2-2"/><path class="cls-7" d="M915.7,278.3l-1.7.4a12,12,0,0,1,1.7,1.6,6,6,0,0,0,4.6,2.3h0a6.36,6.36,0,0,0,4.2-1.9l.3-.3-.4-1.7a7.3,7.3,0,0,1-.9,1,5.07,5.07,0,0,1-3.3,1.5h0a4.58,4.58,0,0,1-3.5-1.9,9.43,9.43,0,0,1-1-1m-8.1,1.8-1.9.4c-.1.1-.1.2-.2.3-1.2,2.3-3,3.7-4.9,3.7h0a6.05,6.05,0,0,1-4.1-2l-1.2.3-.3.3c1.8,1.9,3.7,2.9,5.6,2.9h0c2.6,0,4.8-1.8,6.2-4.4a10.19,10.19,0,0,1,.8-1.5"/><path class="cls-7" d="M914.2,285.5h0a10,10,0,0,0-4.7,1.5l.8,1.2h.1l.2-.1a3.92,3.92,0,0,1,.9-.4,7.16,7.16,0,0,1,2.7-.6h0a3.6,3.6,0,0,1,2.2.7,5.88,5.88,0,0,1,1.9,2.8h0a11.61,11.61,0,0,0,2.4,4.2,4.4,4.4,0,0,0,3,1.4h0a7.53,7.53,0,0,0,4.1-1.6l-.3-1.5a7.44,7.44,0,0,1-3.7,1.7h0a2.61,2.61,0,0,1-2-.9,9.51,9.51,0,0,1-2-3.7,6.93,6.93,0,0,0-2.4-3.4,4.19,4.19,0,0,0-3.2-1.3"/><path class="cls-7" d="M847,297.7l-.2,1.4h.1l.4.1a10.38,10.38,0,0,0,1.2.3,5.86,5.86,0,0,1,2.7,1.8,3.93,3.93,0,0,1,.7,2.3,5.74,5.74,0,0,1-.5,2.4,11.84,11.84,0,0,0-1,4.4,4.75,4.75,0,0,0,.6,2.4,3.81,3.81,0,0,0,1.6,1.5,10.45,10.45,0,0,0,4.9,1,7.85,7.85,0,0,1,4.3,1.4,4.33,4.33,0,0,1,1.6,3.5,8,8,0,0,1-.7,3.1l1.3.5a10.24,10.24,0,0,0,.8-3.6,5.76,5.76,0,0,0-2.1-4.6,8.43,8.43,0,0,0-5.1-1.7,15.32,15.32,0,0,1-3.4-.5,3.19,3.19,0,0,1-1.9-1.4,3.87,3.87,0,0,1-.4-1.7,12.29,12.29,0,0,1,.9-3.9,8.35,8.35,0,0,0,.6-2.9,5,5,0,0,0-1-3.1,6.25,6.25,0,0,0-2.2-1.8,14.37,14.37,0,0,0-3.2-.9"/><path class="cls-7" d="M821.8,298.8l-1.4.3a9.49,9.49,0,0,0,2.5,3,5.18,5.18,0,0,0,2.8.9h0a7.35,7.35,0,0,0,3.7-1.1h0a9.54,9.54,0,0,1,4.3-1.6h0a2.81,2.81,0,0,1,2.4,1.3,12.65,12.65,0,0,1,1.4,3.8h0a8.75,8.75,0,0,0,2.2,4.4,5.81,5.81,0,0,0,4.2,1.8h0a9.36,9.36,0,0,0,4.5-1.4l-.7-1.2a7,7,0,0,1-3.8,1.2,4.31,4.31,0,0,1-3.2-1.4,8,8,0,0,1-1.8-3.7,10.44,10.44,0,0,0-1.6-4.3,4.16,4.16,0,0,0-3.5-2h0a10.46,10.46,0,0,0-5.1,1.8h0a5.58,5.58,0,0,1-2.9.9,4.2,4.2,0,0,1-3.3-1.9c-.3-.3-.5-.6-.7-.8"/><path class="cls-7" d="M796.6,328.5l-1.4.4a8.63,8.63,0,0,0,3.1,4.5,5.18,5.18,0,0,0,2.8.9h0a7.35,7.35,0,0,0,3.7-1.1h0a9.54,9.54,0,0,1,4.3-1.6h0a2.81,2.81,0,0,1,2.4,1.3,12.65,12.65,0,0,1,1.4,3.8,8.75,8.75,0,0,0,2.2,4.4,5.81,5.81,0,0,0,4.2,1.8h0a9.36,9.36,0,0,0,4.5-1.4l-.7-1.2a7,7,0,0,1-3.8,1.2,4.31,4.31,0,0,1-3.2-1.4,8,8,0,0,1-1.8-3.7,10.44,10.44,0,0,0-1.6-4.3,4.16,4.16,0,0,0-3.5-2h0a10.46,10.46,0,0,0-5.1,1.8h0a5.58,5.58,0,0,1-2.9.9h0a4.2,4.2,0,0,1-3.3-1.9,5.08,5.08,0,0,1-1.3-2.4h0"/><path class="cls-7" d="M882.3,321l-1.3.5a7.9,7.9,0,0,1,.5,2.8,4.08,4.08,0,0,1-1.7,3.6,7.19,7.19,0,0,1-4.4,1.3h-.3a12.28,12.28,0,0,0-3.9.5,5,5,0,0,0-2.7,2,4.87,4.87,0,0,0-.6,2.5,14.64,14.64,0,0,0,.8,4.1,6.85,6.85,0,0,1,.4,2.2,3.39,3.39,0,0,1-.7,2.2,4,4,0,0,1-1.6,1.3,7.2,7.2,0,0,1-2.9.9h0l.1,1.4a14.61,14.61,0,0,0,2-.4,7.91,7.91,0,0,0,3.5-2.2,5.35,5.35,0,0,0,1.1-3.2,9.72,9.72,0,0,0-.5-2.7,11.75,11.75,0,0,1-.7-3.6,4,4,0,0,1,.4-1.8,2.17,2.17,0,0,1,1.1-1,9.36,9.36,0,0,1,4.2-.7h.4a8.07,8.07,0,0,0,5.2-1.6,5.81,5.81,0,0,0,2.2-4.8,10.51,10.51,0,0,0-.6-3.3"/><path class="cls-7" d="M858.1,328.3l-.9,1.1h0l.1.1.3.3a10,10,0,0,1,.9,1,6,6,0,0,1,1.2,3.2c0,1.1-.5,2.4-2.3,3.7a11.92,11.92,0,0,0-3,2.9,4.58,4.58,0,0,0-1,2.8,4.77,4.77,0,0,0,1.3,3.1,18,18,0,0,0,2.9,2.5,9.87,9.87,0,0,1,2.5,2.5h1.6a8.63,8.63,0,0,0-3.2-3.7,12,12,0,0,1-2.6-2.2,3.28,3.28,0,0,1-.9-2.2,3.71,3.71,0,0,1,.7-2,9.52,9.52,0,0,1,2.7-2.5c2.1-1.5,2.9-3.2,2.9-4.9a7.17,7.17,0,0,0-1.5-4,11.51,11.51,0,0,0-1.7-1.7"/><path class="cls-7" d="M885.8,304.9c-2.1,1.8-3.2,3.8-3.2,5.7,0,2.5,1.6,4.7,4.1,6.1h0a13.57,13.57,0,0,1,2.8,2.1,3,3,0,0,1,1,2.2,3.71,3.71,0,0,1-.7,2,13.54,13.54,0,0,1-2.4,2.6h0a6.32,6.32,0,0,0-2.6,4.7,6.69,6.69,0,0,0,1.7,4.1,6.3,6.3,0,0,0,1.7,1.6l.8-1.1h0l-.1-.1-.3-.3a9.32,9.32,0,0,1-1-1,5.48,5.48,0,0,1-1.4-3.2c0-1.1.5-2.3,2.1-3.6a14.06,14.06,0,0,0,2.7-2.9,4.84,4.84,0,0,0,.9-2.7,4.68,4.68,0,0,0-1.4-3.1,12.77,12.77,0,0,0-3.1-2.4h0c-2.2-1.3-3.4-3.1-3.4-4.9,0-1.4.7-3,2.7-4.6l-.9-1.2"/><path class="cls-7" d="M903.3,324.4h0a7.11,7.11,0,0,0-4,1.4,6.14,6.14,0,0,0-1.6,1.4l1,1h0l.1-.1.3-.3a11.49,11.49,0,0,1,1-.8,5.54,5.54,0,0,1,3.1-1.1h0c1.2,0,2.5.5,3.8,2.5a13.25,13.25,0,0,0,2.8,3.2,4.73,4.73,0,0,0,2.8,1.1h0a4.94,4.94,0,0,0,3-1.2,13.11,13.11,0,0,0,2.5-2.7c1.4-1.8,3.1-2.9,4.8-2.9h0c1.6,0,3.2.9,4.8,3.2l.9-.6v-.7c-1.6-2.3-3.6-3.4-5.6-3.4h0a7.67,7.67,0,0,0-5.9,3.4,10.64,10.64,0,0,1-2.3,2.4,3.7,3.7,0,0,1-2.1.9,3.23,3.23,0,0,1-2-.8,14.62,14.62,0,0,1-2.5-2.8c-1.5-2.2-3.3-3.1-4.9-3.1"/><path class="cls-7" d="M904.6,343.6h0a6.91,6.91,0,0,0-2.9,3,7,7,0,0,0-.8,2l1.3.4h0v-.1l.1-.4c.1-.3.3-.7.5-1.2a5.32,5.32,0,0,1,2.3-2.4h0a4.48,4.48,0,0,1,4.5.5,12.81,12.81,0,0,0,3.9,1.6,4.93,4.93,0,0,0,3-.3h0a4.49,4.49,0,0,0,2.1-2.4,12,12,0,0,0,1-3.5c.4-2.2,1.5-4,3-4.7h0c1.4-.7,3.3-.6,5.7.7l.5-.9-.3-.6c-2.5-1.3-4.7-1.4-6.5-.5h0a7.35,7.35,0,0,0-3.7,5.7,11,11,0,0,1-1,3.2,2.87,2.87,0,0,1-1.5,1.7,2.83,2.83,0,0,1-2.1.2,12.59,12.59,0,0,1-3.5-1.4,5.82,5.82,0,0,0-5.6-.6"/><path class="cls-7" d="M885.6,352.3h0a7.11,7.11,0,0,0-4,1.4,6.14,6.14,0,0,0-1.6,1.4l1,1h0l.1-.1.3-.3a11.49,11.49,0,0,1,1-.8,5.54,5.54,0,0,1,3.1-1.1h0c1.2,0,2.5.5,3.8,2.5a13.25,13.25,0,0,0,2.8,3.2,4.73,4.73,0,0,0,2.8,1.1h0a4.94,4.94,0,0,0,3-1.2,13.11,13.11,0,0,0,2.5-2.7c1.4-1.8,3.1-2.9,4.8-2.9h0c1.6,0,3.2.9,4.8,3.2l.9-.6v-.7c-1.6-2.3-3.6-3.4-5.6-3.4h0a7.67,7.67,0,0,0-5.9,3.4,10.64,10.64,0,0,1-2.3,2.4,3.7,3.7,0,0,1-2.1.9,3.23,3.23,0,0,1-2-.8,14.62,14.62,0,0,1-2.5-2.8c-1.5-2.2-3.3-3.1-4.9-3.1"/><path class="cls-7" d="M871.5,367.9h0a7.15,7.15,0,0,0-4.2.4,5.35,5.35,0,0,0-1.9,1l.7,1.2h0l.1-.1.4-.2c.2-.1.7-.3,1.2-.5a5.25,5.25,0,0,1,3.3-.3h0c1.2.3,2.3,1.1,3.1,3.3a13.35,13.35,0,0,0,1.9,3.8,4.52,4.52,0,0,0,2.5,1.7h0a5,5,0,0,0,3.2-.4,12.4,12.4,0,0,0,3.1-2c1.8-1.4,3.7-2.1,5.4-1.7h0c1.6.4,2.9,1.6,3.9,4.3l1-.4.2-.7c-1-2.6-2.7-4.2-4.6-4.6h0a7.52,7.52,0,0,0-6.5,1.9,10.08,10.08,0,0,1-2.8,1.8,4.14,4.14,0,0,1-2.3.4,2.79,2.79,0,0,1-1.7-1.3,18.75,18.75,0,0,1-1.8-3.3c-1.1-2.6-2.6-3.9-4.2-4.3"/><path class="cls-7" d="M906.5,364.8h0a7.19,7.19,0,0,0-1.4,4,4.77,4.77,0,0,0,.1,2.1l1.4-.1h0V369a5.33,5.33,0,0,1,1.1-3.1h0c.8-.9,2-1.6,4.3-1.4a11,11,0,0,0,4.2-.2,4.74,4.74,0,0,0,2.6-1.5h0a5.45,5.45,0,0,0,1-3.1,16.34,16.34,0,0,0-.5-3.6c-.5-2.2-.3-4.2.8-5.6h0c1-1.2,2.7-1.9,5.5-1.7l.1-1.1-.5-.4a7.2,7.2,0,0,0-6.2,2.2h0a7.68,7.68,0,0,0-1.1,6.7,10.52,10.52,0,0,1,.4,3.3,3.4,3.4,0,0,1-.6,2.2,2.87,2.87,0,0,1-1.9,1,13.66,13.66,0,0,1-3.7.2c-2.8-.2-4.6.6-5.6,1.9"/><path class="cls-7" d="M882,342.2h0a6.91,6.91,0,0,0-2.9,3,7,7,0,0,0-.8,2l1.3.4h0v-.1l.1-.4c.1-.3.3-.7.5-1.2a5.32,5.32,0,0,1,2.3-2.4h0a4.48,4.48,0,0,1,4.5.5,12.81,12.81,0,0,0,3.9,1.6,4.93,4.93,0,0,0,3-.3h0a4.49,4.49,0,0,0,2.1-2.4,16.09,16.09,0,0,0,1-3.5c.4-2.2,1.5-4,3-4.7h0c1.4-.7,3.3-.6,5.7.7l.5-.9-.3-.6c-2.5-1.3-4.7-1.4-6.5-.5h0a7.35,7.35,0,0,0-3.7,5.7,11,11,0,0,1-1,3.2,2.87,2.87,0,0,1-1.5,1.7,2.83,2.83,0,0,1-2.1.2,12.59,12.59,0,0,1-3.5-1.4,5.82,5.82,0,0,0-5.6-.6"/><path class="cls-7" d="M874.2,287.4l-1.4.3v.2a4.71,4.71,0,0,0,2,4.1,8.67,8.67,0,0,0,4.6,1h1.2a6.58,6.58,0,0,1,4.2,1.3,4.46,4.46,0,0,1,1.6,3.7,8.24,8.24,0,0,1-.4,2.6l1.4.4a11.77,11.77,0,0,0,.5-3.1,6.18,6.18,0,0,0-2.1-4.8,7.78,7.78,0,0,0-5.1-1.6h-1.3a6.72,6.72,0,0,1-3.8-.8,3.19,3.19,0,0,1-1.4-2.8.45.45,0,0,1,0-.5"/><path class="cls-7" d="M853.1,292l-1.4.3a11.68,11.68,0,0,0,.4,2.9,5.87,5.87,0,0,0,2.3,3.2,6.05,6.05,0,0,0,3.2.9h0a8.08,8.08,0,0,0,1.5-.1,21.51,21.51,0,0,1,2.3-.2h0c1.8,0,2.8.4,3.3,1a3.76,3.76,0,0,1,.8,2.8,13.9,13.9,0,0,1-.3,2.7h0a13.55,13.55,0,0,0-.2,2,6.2,6.2,0,0,0,6.7,6.6h0a11.48,11.48,0,0,0,1.8-.1l-.2-1.4a9.15,9.15,0,0,1-1.6.1,5.26,5.26,0,0,1-4-1.5,5.62,5.62,0,0,1-1.3-3.8,11.14,11.14,0,0,1,.2-1.7,16,16,0,0,0,.3-3,4.77,4.77,0,0,0-5.5-5.3h0a22.86,22.86,0,0,0-2.5.2h0a5.74,5.74,0,0,1-1.2.1,5,5,0,0,1-2.4-.6,3.74,3.74,0,0,1-1.3-1.5,8.2,8.2,0,0,1-.7-3.4l-.2-.2"/><path class="cls-7" d="M856.6,322.9a5.37,5.37,0,0,0-3.5,1.1,6.58,6.58,0,0,0-2.3,4.3,9.38,9.38,0,0,1-1.6,4.3,2.79,2.79,0,0,1-2.2,1.1h0a9.73,9.73,0,0,1-4.2-1.5,8.76,8.76,0,0,0-4.3-1.2h0a5.91,5.91,0,0,0-4.1,1.6,9,9,0,0,0-2.3,4.8l1.4.2a6.54,6.54,0,0,1,1.9-4,4.47,4.47,0,0,1,3.1-1.2h0a8.16,8.16,0,0,1,3.7,1.1,12.5,12.5,0,0,0,4.9,1.7h0a3.88,3.88,0,0,0,3.2-1.6,10.67,10.67,0,0,0,1.9-4.9,5.4,5.4,0,0,1,1.7-3.4,4.2,4.2,0,0,1,2.6-.8h0a9.34,9.34,0,0,1,3,.6h.1l.6-1.3c0-.2-1.6-.9-3.6-.9h0"/><path class="cls-7" d="M926.8,303.3h0a8.48,8.48,0,0,0-5,1.9l.8,1.1a7.13,7.13,0,0,1,4.1-1.6,3.92,3.92,0,0,1,1.8.4v-1.5a4.31,4.31,0,0,0-1.7-.3"/><path class="cls-7" d="M919.8,307.4h0l-.1.4c-.1.3-.2.6-.4,1.1a6.14,6.14,0,0,1-1.9,2.4,3.52,3.52,0,0,1-2.1.7,5.73,5.73,0,0,1-2.8-.8,12,12,0,0,0-4.9-1.6h-.1a4.08,4.08,0,0,0-3.6,2,10.37,10.37,0,0,0-1.4,4.5,7.39,7.39,0,0,1-1.7,3.9,4.22,4.22,0,0,1-3.3,1.4h0a8.2,8.2,0,0,1-3.6-1l-.7,1.2a9.36,9.36,0,0,0,4.3,1.2h0a5.75,5.75,0,0,0,4.3-1.9,8.07,8.07,0,0,0,2-4.6,12.63,12.63,0,0,1,1.2-4,2.74,2.74,0,0,1,2.5-1.4h0a9.22,9.22,0,0,1,4.2,1.4,7.22,7.22,0,0,0,3.5,1h0a5.53,5.53,0,0,0,2.9-.9,6.4,6.4,0,0,0,1.8-1.9,9.53,9.53,0,0,0,1.2-2.7l-1.3-.4"/><path class="cls-7" d="M914.2,296.9a5.68,5.68,0,0,0-3.7,1.4,10.34,10.34,0,0,0-2.6,3.5A11.74,11.74,0,0,1,906,305a2.78,2.78,0,0,1-2.2,1.1h0c-1.1,0-2.6-.7-4.6-2.5a6.48,6.48,0,0,0-4.4-2h0a5.93,5.93,0,0,0-4.3,2.1,8.63,8.63,0,0,0-1.5,2l1.2.7h0l.1-.1.3-.4a9,9,0,0,1,1-1.2,4.55,4.55,0,0,1,3.3-1.6h0a5,5,0,0,1,3.4,1.6c2.1,2,3.9,2.9,5.5,2.9h0a4.37,4.37,0,0,0,3.3-1.6,11.4,11.4,0,0,0,2.1-3.6h0a8.84,8.84,0,0,1,2.1-3,4.19,4.19,0,0,1,2.8-1,6.58,6.58,0,0,1,4.4,2.1l1-1a7.42,7.42,0,0,0-5.3-2.6h0"/><path class="cls-7" d="M881.3,298.3a8.45,8.45,0,0,0-4.4,2.4,5.78,5.78,0,0,0-1.5,3.9,8.57,8.57,0,0,0,1.6,4.7,9.08,9.08,0,0,1,1.8,4.4,2.79,2.79,0,0,1-1,2.1,8.78,8.78,0,0,1-4,1.8,7,7,0,0,0-3.9,2.3,5.13,5.13,0,0,0-1,3.3,8.94,8.94,0,0,0,1.1,4.2l1.2-.7v-.1l-.1-.2a6.89,6.89,0,0,1-.3-.8,8.6,8.6,0,0,1-.4-2.4,4,4,0,0,1,.7-2.4,5.29,5.29,0,0,1,3.1-1.8,10.38,10.38,0,0,0,4.6-2.1,4.22,4.22,0,0,0,1.5-3.2c0-1.7-.9-3.4-2-5.2h0a7.27,7.27,0,0,1-1.3-4,3.91,3.91,0,0,1,1.1-2.9,7.62,7.62,0,0,1,3.7-2l-.5-1.3"/><path class="cls-7" d="M888.3,284.3l-1.4.3v.8h0v1a8.18,8.18,0,0,0,1.3,5.1,4.42,4.42,0,0,0,3.6,1.5h0a14.63,14.63,0,0,0,3.9-.7,7.66,7.66,0,0,1,2.5-.4,4.9,4.9,0,0,1,3.6,1.4,5.85,5.85,0,0,1,1.5,4.3v.6l1.4.1v-.7a7.28,7.28,0,0,0-1.9-5.3,6.34,6.34,0,0,0-4.6-1.8h0a15.51,15.51,0,0,0-2.9.4,12.19,12.19,0,0,1-3.4.6h0a2.92,2.92,0,0,1-2.5-1c-.6-.7-1-2-1-4.2v-1h0v-.5a.75.75,0,0,1-.1-.5"/><path class="cls-7" d="M928.6,314.1a4.59,4.59,0,0,0-1.4.7,14.06,14.06,0,0,0-2.9,2.7h0c-1.4,1.6-2.6,2-3.6,2h0a5.34,5.34,0,0,1-3.1-1.3,19,19,0,0,1-1.5-1.5h0l-1.2.8a8.47,8.47,0,0,0,1.6,1.7,6.73,6.73,0,0,0,4.2,1.7h0a6.32,6.32,0,0,0,4.7-2.5A13.54,13.54,0,0,1,928,316c.2-.1.4-.3.6-.3v-1.6"/><path class="cls-7" d="M840.4,336.9a8,8,0,0,0-2.7,5.5A5.88,5.88,0,0,0,839,346a9.54,9.54,0,0,0,3.3,2.6,11.07,11.07,0,0,1,3.1,2,5,5,0,0,1,.7.8h1.6a4.63,4.63,0,0,0-1.3-1.8,11.73,11.73,0,0,0-3.4-2.2,7.06,7.06,0,0,1-2.8-2.2,4.19,4.19,0,0,1-1-2.8,6.3,6.3,0,0,1,2.3-4.5l-1.1-1"/><path class="cls-7" d="M830.9,339.3l-1.4.4h0v.1a4.33,4.33,0,0,1,.1.5,7,7,0,0,1,.2,1.6,4.63,4.63,0,0,1-.9,3c-.7.9-1.7,1.6-3.9,1.7h0a9.4,9.4,0,0,0-5.4,1.5,4.32,4.32,0,0,0-1.7,3.3h1.4a3.13,3.13,0,0,1,1.1-2.2,8.66,8.66,0,0,1,4.7-1.2h0a6.16,6.16,0,0,0,4.9-2.2,6.47,6.47,0,0,0,1.1-3.9,6.3,6.3,0,0,0-.2-2.6"/><path class="cls-7" d="M792.5,327.8v.7l.3-.2c-.1-.2-.2-.3-.3-.5"/><path class="cls-7" d="M794.5,304.7l-1.9.4a3.83,3.83,0,0,1,1.1.8,8.51,8.51,0,0,1,2,3.4,12.35,12.35,0,0,0,1.9,4,4.17,4.17,0,0,0,3.4,1.8h0c1.5,0,3.2-.7,5.4-2.3h0a5.82,5.82,0,0,1,3.2-1.3h0a4.44,4.44,0,0,1,3.2,1.7,10.07,10.07,0,0,1,1.4,2.1h0l1.3-.5a10.44,10.44,0,0,0-1.4-2.3,5.62,5.62,0,0,0-4.5-2.4h0a7.13,7.13,0,0,0-4,1.5c-2,1.5-3.5,2-4.5,2h0a2.8,2.8,0,0,1-2.3-1.2,11.43,11.43,0,0,1-1.6-3.5,9,9,0,0,0-2.4-4,.77.77,0,0,1-.3-.2"/><path class="cls-7" d="M793.8,313.9h0a5.85,5.85,0,0,0-1.3.2v1.5a3.45,3.45,0,0,1,1.3-.3,3.15,3.15,0,0,1,2.2,1,17,17,0,0,1,2.1,2.8c1.4,2.5,3.6,4.2,6.1,4.2h0c1.9,0,3.9-1,5.7-3.1l-1.1-.9c-1.6,1.9-3.2,2.6-4.6,2.6h0c-1.8,0-3.6-1.2-4.9-3.5h0a15.74,15.74,0,0,0-2.4-3.2,4.85,4.85,0,0,0-3.1-1.3"/><path class="cls-7" d="M938.5,343.4c-2.4,0-4.1.4-5.3,1.3a4.31,4.31,0,0,0-1.7,3.6,10.47,10.47,0,0,0,.5,3h1.5a13.2,13.2,0,0,1-.6-3,2.84,2.84,0,0,1,1.1-2.5c.8-.6,2.2-1,4.5-1h.2l-.2-1.4"/><path class="cls-7" d="M932.7,328.5l-1.4.4a8.63,8.63,0,0,0,3.1,4.5,4.85,4.85,0,0,0,2.1.8l-.3-1.5A4.7,4.7,0,0,1,934,331a9.77,9.77,0,0,1-1.3-2.5h0"/><path class="cls-7" d="M928.6,327.8v.7l.3-.2c-.1-.2-.2-.3-.3-.5"/><path class="cls-7" d="M928.6,303.6v1.5a8.34,8.34,0,0,1,1.2.8l.7.7-.5-2.4a8.43,8.43,0,0,0-1.4-.6"/><path class="cls-7" d="M929.9,313.9h0a5.85,5.85,0,0,0-1.3.2v1.5a3.45,3.45,0,0,1,1.3-.3,3.15,3.15,0,0,1,2.2,1l.7.7-.5-2.4a5.13,5.13,0,0,0-2.4-.7"/><path class="cls-3" d="M508.5,259.1c-.1-.2-.2-.3-.3-.5H388.9v.1l-.3.1-.3-.1v-.1H252.8v.1l-.3.1-.3-.1v-.1H116.7v.1l-.3.1-.3-.1v-.1H56.2v1.9H510A5.09,5.09,0,0,1,508.5,259.1Z"/><polygon class="cls-10" points="761.1 408.6 760.6 408.6 779.3 494.3 780.5 499.9 786.1 498.7 963.9 459.9 969.4 458.7 969.4 458.6 964.6 459.7 786.5 498.5 780.9 499.7 779.7 494.2 761.1 408.6"/><path class="cls-2" d="M928.2,269.8l-5.5,1.2L745.9,309.6l1.2,5.5,1.1-.2,1.6-.4,19.2-4.2,3-.7,20.6-4.5,1.9-.4,4.8-1.1,1.6-.4,9-2,3.8-.8,6.7-1.5,1.4-.3,29.8-6.5,1.4-.3,8.9-1.9,1.4-.3,9.3-2,1.4-.3,12.7-2.8,1.4-.3,7.1-1.5,1.2-.3,9.2-2,1.9-.4,6.3-1.4,1.7-.4,8.3-1.8.5,2.2.4,1.7,2.7,12.3.3,1.5,2.2,10,.5,2.4,1.7,8,.5,2.4,3.4,15.7.3,1.5,2,9.2.3,1.4,3.4,15.4.3,1.4,3,13.9.4,1.6,2.3,10.4.4,1.7,2.6,11.8.3,1.4,5.1,23.5.3,1.4,1.9,8.5.5,2.3,1.6,7.5.3,1.4,1.5,7.1.7-.1L952,402.7h2.7L932.8,291.3l-3.5-16.2ZM759.4,402.9h0"/><path class="cls-4" d="M744,309.9l-4.7,1,1.2,5.5,18.8,86.4h5.3l-8.4-37.9a4.65,4.65,0,0,0-2,.9l-.3-1.5a11.92,11.92,0,0,1,2-.8l-3.3-15a6.15,6.15,0,0,1-1.9,1.2l-.3-1.4a4,4,0,0,0,1.6-1.2c.1-.1.1-.2.2-.3L744,309.9m8.4,47.8-.7-3.3.6-.1a10.72,10.72,0,0,1,.2,2.1,6.15,6.15,0,0,1-.1,1.3"/><path class="cls-11" d="M745.9,309.5l-1,.2-.9.2,8.2,37a3.13,3.13,0,0,0,.5-1l-2.5-11.7-1.2-5.7-2.9-13.3,1-.2-1.2-5.5m7.3,38.5h0c-.3.3-.4.5-.6.6l3.3,15c.1,0,.2-.1.4-.1a.37.37,0,0,0,.3-.1L753.2,348m3.7,16.9a.37.37,0,0,0-.3.1c-.1,0-.2.1-.4.1l8.4,37.9h.5l-.2-.8-1.5-6.8-.3-1.4-6.2-29.1"/><polygon class="cls-11" points="933 291.5 954.9 402.9 957.3 402.9 933 291.5"/><line class="cls-12" x1="504.2" y1="259.8" x2="504.2" y2="411.9"/><polyline class="cls-5" points="503.2 259.8 503.2 411.9 505.1 411.9 505.1 259.8"/><polyline class="cls-5" points="645 402.7 645 310 504.2 310 504.2 402.9"/><polygon class="cls-6" points="646 402.7 646 309.1 503.2 309.1 503.2 402.9 505.1 402.9 505.1 310.9 644.1 310.9 644.1 402.7 646 402.7"/><path class="cls-13" d="M815,295.8l-5.2-26.3-.3.1a27,27,0,0,0-20.7,31.8Z"/><rect class="cls-14" x="789.22" y="298.6" width="26.8" height="5.4" transform="translate(-44.89 172.06) rotate(-11.91)"/><path class="cls-13" d="M1019,258.8l.1-26.8h-.3a26.93,26.93,0,0,0-26.6,27Z"/><rect class="cls-5" x="992.33" y="258.91" width="26.8" height="5.4" transform="translate(-1.82 7.09) rotate(-0.4)"/><polyline class="cls-4" points="60 378.8 60 258.8 54.4 258.8 54.4 378.8"/><line class="cls-12" x1="406.9" y1="413.6" x2="406.9" y2="259.8"/><polyline class="cls-5" points="407.8 413.6 407.8 259.8 405.9 259.8 405.9 413.6"/><polygon class="cls-15" points="524.1 187.1 523.4 187.1 523.3 187.4 523.4 187.7 523.7 187.9 524.1 187.7 524.2 187.4 524.1 187.1"/><path class="cls-15" d="M527.5,184.1a.37.37,0,0,0-.3.1l-.2.3.2.3.3.1.3-.2.1-.3-.1-.3h-.3"/><path class="cls-15" d="M532.3,182.2a.37.37,0,0,0-.3.1l-.2.3.2.3.3.1.3-.2.1-.3-.1-.3h-.3"/><path class="cls-15" d="M532.3,174.2a.37.37,0,0,0-.3.1l-.2.3.2.3.3.1.3-.1.1-.3-.1-.3a.37.37,0,0,0-.3-.1"/><path class="cls-15" d="M535.6,162.8a.37.37,0,0,0-.3.1l-.2.3.2.3.3.1.3-.1.1-.3-.1-.3c-.1,0-.2-.1-.3-.1"/><path class="cls-15" d="M549.7,173.7a.37.37,0,0,0-.3.1l-.2.3.2.3.3.1.3-.1.1-.3-.1-.3c0-.1-.1-.1-.3-.1"/><path class="cls-15" d="M551.6,166.1a.37.37,0,0,0-.3.1l-.2.3.2.3.3.1.3-.2.1-.3-.1-.3c0,.1-.2,0-.3,0"/><path class="cls-15" d="M557.3,167.1a.37.37,0,0,0-.3.1l-.2.3.2.3.3.1.3-.1.1-.3-.1-.3a.37.37,0,0,0-.3-.1"/><path class="cls-15" d="M557.3,180.8a.37.37,0,0,0-.3.1l-.2.3.2.3.3.1.3-.1.1-.3-.1-.3a.37.37,0,0,0-.3-.1"/><path class="cls-15" d="M550.2,184.6a.37.37,0,0,0-.3.1l-.2.3.2.3.3.1.3-.1.1-.3-.1-.3a.37.37,0,0,0-.3-.1"/><path class="cls-15" d="M552.1,191.2a.37.37,0,0,0-.3.1l-.2.3.2.3.3.1.3-.2.1-.3-.1-.3h-.3"/><path class="cls-15" d="M560.1,195.4a.37.37,0,0,0-.3.1l-.2.3.2.3.3.1.3-.2.1-.3-.1-.3c0,.1-.1,0-.3,0"/><path class="cls-15" d="M563.5,194.5a.6.6,0,0,0-.4.1l-.1.3.2.3.3.1.3-.2.1-.3-.1-.3h-.3"/><path class="cls-15" d="M571.5,145.3a.37.37,0,0,0-.3.1l-.2.3.2.3.3.1.3-.1.1-.3-.2-.3a.35.35,0,0,0-.2-.1"/><path class="cls-15" d="M563.5,150.5a.6.6,0,0,0-.4.1l-.1.3.2.3.3.1.3-.2.1-.3-.1-.3c-.1.1-.2,0-.3,0"/><path class="cls-15" d="M546,152c-.1,0-.3,0-.3.1l-.1.3.2.3.3.1.3-.2.1-.3-.1-.3H546"/><path class="cls-15" d="M544.1,156.2a.37.37,0,0,0-.3.1l-.2.3.2.3.3.1.3-.2.1-.3-.2-.3h-.2"/><path class="cls-15" d="M551.6,159.5a.37.37,0,0,0-.3.1l-.2.3.1.3.3.2.3-.1.1-.3-.1-.3c.1-.1-.1-.2-.2-.2"/><path class="cls-15" d="M554.5,163.3a.37.37,0,0,0-.3.1l-.2.3.2.3.3.1.3-.1.1-.3-.1-.3a.37.37,0,0,0-.3-.1"/><path class="cls-15" d="M571,169c-.1,0-.3,0-.3.1l-.1.3.2.3.3.1.3-.2.1-.3-.1-.3H571"/><path class="cls-15" d="M576.2,176.1a.37.37,0,0,0-.3.1l-.2.3.2.3.3.1.3-.1.1-.3-.1-.3a.37.37,0,0,0-.3-.1"/><path class="cls-15" d="M580,176.1a.37.37,0,0,0-.3.1l-.2.3.2.3.3.1.3-.1.1-.3-.1-.3a.37.37,0,0,0-.3-.1"/><path class="cls-15" d="M584.7,163.3a.37.37,0,0,0-.3.1l-.2.3.2.3.3.1.3-.1.1-.3-.1-.3c0-.1-.2-.1-.3-.1"/><path class="cls-15" d="M566.7,151.9a.37.37,0,0,0-.3.1l-.2.3.2.3.3.1.3-.1.1-.3-.1-.3a.44.44,0,0,0-.3-.1"/><path class="cls-15" d="M542.6,168.5a.37.37,0,0,0-.3.1l-.2.3.2.3.3.1.3-.1.1-.3-.1-.3c0-.1-.1-.1-.3-.1"/><path class="cls-15" d="M523.3,162.3c-.1,0-.2,0-.3.2l-.1.3.2.3.3.1.3-.2.1-.3-.1-.3c-.2,0-.3-.1-.4-.1"/><path class="cls-15" d="M524.7,136.8a.37.37,0,0,0-.3.1l-.2.3.2.3.3.1.3-.1.1-.3-.1-.3c-.1,0-.2-.1-.3-.1"/><path class="cls-15" d="M528,139.7a.37.37,0,0,0-.3.1l-.2.3.2.3.3.1.3-.1.1-.3-.1-.3a.37.37,0,0,0-.3-.1"/><path class="cls-15" d="M580.9,136.4c-.1,0-.3,0-.3.1l-.1.3.2.3.3.1.3-.1.1-.3-.1-.3c-.1-.1-.2-.1-.4-.1"/><path class="cls-15" d="M584.7,134.5a.37.37,0,0,0-.3.1l-.2.3.2.3.3.1.3-.1.1-.3-.1-.3c0-.1-.2-.1-.3-.1"/><path class="cls-15" d="M579,148.6a.37.37,0,0,0-.3.1l-.2.3.2.3.3.1.3-.1.1-.3-.1-.3a.44.44,0,0,0-.3-.1"/><path class="cls-15" d="M536.5,197.3a.37.37,0,0,0-.3.1l-.2.3.2.3.3.1.3-.1.1-.3-.1-.3c-.1,0-.2-.1-.3-.1"/><path class="cls-15" d="M523.7,169.9a.37.37,0,0,0-.3.1l-.2.3.2.3.3.1.3-.1.1-.3-.2-.3c.1,0-.1-.1-.2-.1"/><polygon class="cls-15" points="532.1 143.6 531.4 143.6 531.3 143.9 531.4 144.2 531.8 144.4 532.1 144.2 532.2 143.9 532.1 143.6"/><path class="cls-15" d="M550.7,149.1a.37.37,0,0,0-.3.1l-.2.3.2.3.3.1.3-.2.1-.3-.1-.3c-.1.1-.2,0-.3,0"/><path class="cls-15" d="M568.2,165.2a.37.37,0,0,0-.3.1l-.2.3.2.3.3.1.3-.1.1-.3-.1-.3a.37.37,0,0,0-.3-.1"/><path class="cls-15" d="M580.9,160.9a.37.37,0,0,0-.3.1l-.2.3.2.3.3.1.3-.1.1-.3-.1-.3a1,1,0,0,0-.3-.1"/><path class="cls-15" d="M528.9,149.6a.37.37,0,0,0-.3.1l-.2.3.2.3.3.1.3-.2.1-.3-.1-.3h-.3"/><path class="cls-15" d="M580.9,186.5a.37.37,0,0,0-.3.1l-.2.3.2.3.3.1.3-.2.1-.3-.1-.3h-.3"/><path class="cls-15" d="M562.5,136.4a.37.37,0,0,0-.3.1l-.2.3.2.3.3.1.3-.2.1-.3-.1-.3h-.3"/><path class="cls-15" d="M553,140.1a.37.37,0,0,0-.3.1l-.2.3.2.3.3.1.3-.2.1-.3-.1-.3c0,.1-.1,0-.3,0"/><polygon class="cls-15" points="543.4 142.1 542.8 142.1 542.6 142.5 542.8 142.8 543.1 143 543.5 142.8 543.6 142.5 543.4 142.1"/><path class="cls-15" d="M537,152.4a.37.37,0,0,0-.3.1l-.2.3.2.3.3.1.3-.1.1-.3-.1-.3c-.1,0-.2-.1-.3-.1"/><path class="cls-15" d="M530.4,169a.37.37,0,0,0-.3.1l-.2.3.2.3.3.1.3-.1.1-.3-.1-.3a.37.37,0,0,0-.3-.1"/><path class="cls-15" d="M539.8,177a.37.37,0,0,0-.3.1l-.2.3.2.3.3.1.3-.1.1-.3-.1-.3c0-.1-.2-.1-.3-.1"/><path class="cls-15" d="M541.2,185.5a.37.37,0,0,0-.3.1l-.2.3.2.3.3.1.3-.2.1-.3-.1-.3h-.3"/><path class="cls-15" d="M532.7,190.7a.37.37,0,0,0-.3.1l-.2.3.2.3.3.1.3-.1.1-.3-.1-.3c0-.1-.2-.1-.3-.1"/><path class="cls-15" d="M528.9,196.8a.37.37,0,0,0-.3.1l-.2.3.2.3.3.1.3-.1.1-.3-.1-.3a.44.44,0,0,0-.3-.1"/><path class="cls-15" d="M521.4,196.8a.37.37,0,0,0-.3.1l-.2.3.2.3.3.1.3-.1.1-.3-.1-.3c-.1,0-.2-.1-.3-.1"/><path class="cls-15" d="M522.3,177.9a.37.37,0,0,0-.3.1l-.2.3.2.3.3.1.3-.2.1-.3-.1-.3c0,.1-.2,0-.3,0"/><path class="cls-15" d="M564.4,186a.37.37,0,0,0-.3.1l-.2.3.2.3.3.1.3-.1.1-.3-.1-.3a.37.37,0,0,0-.3-.1"/><path class="cls-15" d="M572.4,186a.37.37,0,0,0-.3.1l-.2.3.2.3.3.1.3-.2.1-.3-.1-.3h-.3"/><path class="cls-15" d="M566.7,174.2a.37.37,0,0,0-.3.1l-.2.3.2.3.3.1.3-.1.1-.3-.1-.3c0-.1-.1-.1-.3-.1"/><path class="cls-15" d="M556.4,173.7c-.1,0-.3,0-.3.1l-.1.3.2.3.3.1.3-.2.1-.3-.1-.3h-.4"/><path class="cls-15" d="M565.3,161.9a.6.6,0,0,0-.4.1l-.1.3.2.3.3.1.3-.2.1-.3-.1-.3h-.3"/><path class="cls-15" d="M556.8,157.1a.37.37,0,0,0-.3.1l-.2.3.2.3.3.1.3-.1.1-.3-.1-.3a1,1,0,0,0-.3-.1"/><path class="cls-15" d="M558.7,145.3a.37.37,0,0,0-.3.1l-.2.3.2.3.3.1.3-.1.1-.3-.1-.3a1,1,0,0,0-.3-.1"/><path class="cls-15" d="M571.5,158.1a.37.37,0,0,0-.3.1l-.2.3.2.3.3.1.3-.1.1-.3-.2-.3c0-.1-.1-.1-.2-.1"/><path class="cls-15" d="M580,168a.37.37,0,0,0-.3.1l-.2.3.2.3.3.1.3-.1.1-.3-.1-.3c-.1,0-.2-.1-.3-.1"/><path class="cls-15" d="M584.7,180.8a.37.37,0,0,0-.3.1l-.2.3.2.3.3.1.3-.1.1-.3-.1-.3c0-.1-.2-.1-.3-.1"/><path class="cls-15" d="M573.4,195c-.1,0-.3,0-.3.1l-.2.3.2.3.3.1.3-.2.1-.3-.1-.3h-.3"/><path class="cls-15" d="M584.2,198.3a.37.37,0,0,0-.3.1l-.2.3.2.3.3.1.3-.2.1-.3-.1-.3h-.3"/><path class="cls-15" d="M587.5,144.9a.37.37,0,0,0-.3.1l-.2.3.2.3.3.1.3-.1.1-.3-.1-.3c0-.1-.1-.1-.3-.1"/><path class="cls-2" d="M883.1,5.7h0m-2,0c-5.3,0-10.6.1-16,.2,2.6,0,5.2-.1,7.7-.1,2.8-.1,5.6-.1,8.3-.1h0m-250,23.1c-26,5-52,10.8-77.5,17.4,19-4.7,41.7-10,67.1-15.3,3.5-.7,7-1.5,10.4-2.1M6.9,218.4H5.7v1.9H6.9Z"/><path class="cls-3" d="M884.2,5.7h0"/><path class="cls-3" d="M881.1,5.7c-2.7,0-5.5,0-8.2.1,2.7-.1,5.5-.1,8.2-.1h0"/><path class="cls-3" d="M1017.6,67.2h-2l-17.2,46.1-65.8,19.5v.1l-.4.2-.1-.1-45.8,13.6.1.2-.1.3-.3.1-.3-.1-.1-.3-58.4,17.3-.3.1-65.5,19.4c.1,0,.1.1.2.1l.1.3-.1.3-.3.1-.3-.1-.2-.3.1-.3-26.5,7.9a.35.35,0,0,1,.2.1l.1.3-.1.3-.3.1-.3-.1-.2-.3.1-.3h0l-89.5,26.6-32.4.1v.1l-.3.1-.3-.1v-.1H475.9v.1l-.3.1-.3-.1v-.1H339.8v.1l-.3.1-.3-.1v-.1H203.6v.1l-.3.1-.3-.1v-.1H67.5v.1l-.3.1-.3-.1v-.1H7v1.9H601.4l43.3-.1L999.8,114.9l.2-.4,17.6-47.3"/><path class="cls-3" d="M1002.7,104.1h0l-.2-.4.2-.3a.37.37,0,0,1,.3-.1h.1l-.4.8"/><path class="cls-3" d="M966.2,123.8l-.1-.2.2-.3a.5.5,0,0,1,.6,0l.1.3-.8.2"/><path class="cls-3" d="M958.2,126.2h0c.1-.2.2-.2.4-.2h.2l-.6.2"/><path class="cls-3" d="M882.7,148.6h0l-.2-.3.1-.3a.37.37,0,0,1,.3-.1.76.76,0,0,1,.4.1l.1.3-.1.2-.6.1"/><path class="cls-3" d="M534.7,219.3l-.1-.3.2-.3a.5.5,0,0,1,.6,0l.1.3-.1.3h-.7"/><path class="cls-3" d="M398.6,219.3l-.1-.3.2-.3a.5.5,0,0,1,.6,0l.1.3-.1.3h-.7"/><path class="cls-3" d="M262.5,219.3l-.1-.3.2-.3a.5.5,0,0,1,.6,0l.1.3-.1.3h-.7"/><path class="cls-3" d="M126.4,219.3l-.1-.3.2-.3a.5.5,0,0,1,.6,0l.1.3-.1.3h-.7"/><path class="cls-3" d="M595.7,219.3l.1-.2a.37.37,0,0,1,.3-.1.6.6,0,0,1,.4.1l.1.2h-.9"/><path class="cls-3" d="M575.8,219.3l.1-.2a.5.5,0,0,1,.6,0l.1.2h-.8"/><path class="cls-3" d="M459.5,219.3l.1-.2a.37.37,0,0,1,.3-.1.6.6,0,0,1,.4.1l.1.2h-.9"/><path class="cls-3" d="M439.7,219.3l.1-.2a.5.5,0,0,1,.6,0l.1.2h-.8"/><path class="cls-3" d="M323.4,219.3l.1-.2a.37.37,0,0,1,.3-.1.6.6,0,0,1,.4.1l.1.2h-.9"/><path class="cls-3" d="M303.6,219.3l.1-.2a.5.5,0,0,1,.6,0l.1.2h-.8"/><path class="cls-3" d="M187.3,219.3l.1-.2a.37.37,0,0,1,.3-.1.6.6,0,0,1,.4.1l.1.2h-.9"/><path class="cls-3" d="M167.4,219.3l.1-.2a.5.5,0,0,1,.6,0l.1.2h-.8"/><path class="cls-3" d="M51.2,219.3l.1-.2a.37.37,0,0,1,.3-.1.6.6,0,0,1,.4.1l.1.2h-.9"/><path class="cls-3" d="M31.3,219.3l.1-.2a.5.5,0,0,1,.6,0l.1.2h-.8"/><line class="cls-12" x1="116.1" y1="414.2" x2="116.1" y2="260.5"/><polyline class="cls-5" points="117 414.2 117 260.5 115.1 260.5 115.1 414.2"/><line class="cls-12" x1="609.4" y1="36.6" x2="647" y2="219"/><polyline class="cls-5" points="608.5 36.8 646 219.2 647.9 218.8 610.4 36.4"/><line class="cls-12" x1="845.1" y1="3" x2="875.6" y2="150.1"/><polyline class="cls-5" points="844.2 3.2 874.6 150.3 876.5 149.9 846 2.9"/><path class="cls-4" d="M883.1,0C831,0,743.2,5.4,620.7,30.9,552.5,45.1,503,59.5,496.2,61.5H0v326l1.7,1.7c9.6,9.6,19.5,14.5,29.4,14.5,17.2,0,27.5-14.6,27.9-15.2l1-1.5v-7.1h5.8v37.7H508.9v-8.9H761.1l18.7,85.6,1.2,5.5,5.5-1.2,178.1-38.8,5.5-1.2-1.2-5.5-9.7-44.3h311.6V61.5H1022.3l12.4-35.6,1.9-5.6-5.6-1.7C990.7,6.3,940.9,0,883.1,0m0,5.7c52.5,0,103.1,5.1,146.3,18.3l-15.1,43.2h250.8V402.9h-313l11.2,51.2L785.2,492.9l-19.6-90.1H503.2v8.9H71.5V374H54.4v11s-8.8,12.8-23.2,12.8c-7.2,0-15.8-3.2-25.4-12.8V67.2H497.1c-.1,0,204.2-61.5,386-61.5"/><path class="cls-16" d="M625.5,297a14.87,14.87,0,0,1,8.2.8c-4.7,1.4-7.4,1.1-8.8.7,1,.7,2.4,2.4,1.4,6.5-2.8-2.4-3.1-4.4-2.8-5.6a17.16,17.16,0,0,1-6.6,4.5,17,17,0,0,1,5.3-5.8,8.74,8.74,0,0,1-6-3.6c5.2.3,6.9,1.8,7.5,2.7-.2-1.1.2-3.3,4-6.7a8.07,8.07,0,0,1-2.2,6.5"/><path class="cls-17" d="M623.3,291.9c2,.5,5.3.7,10-.7-5.6-1.8-9-1.6-10.8-1.1,1.2-.8,3-2.9,1.9-7.9-3.5,2.9-3.9,5.3-3.6,6.8-1.2-1.5-3.5-3.6-7.9-5.7,2.2,4,4.6,6.1,6.4,7.1-1.9.1-4.7,1-7.4,4.3,6.3-.2,8.5-2,9.3-3.1-.2,1.3.1,4,4.7,8.3.2-4.2-1.3-6.6-2.6-8"/><path class="cls-18" d="M607.5,291.3c-2,.6-5.3.9-10.1-.4,5.6-2,8.9-1.9,10.7-1.5-1.3-.8-3.1-2.8-2.1-7.8,3.6,2.7,4,5.2,3.8,6.7,1.1-1.6,3.4-3.7,7.7-6a19.51,19.51,0,0,1-6.1,7.4,10.31,10.31,0,0,1,7.5,4c-6.3,0-8.6-1.7-9.4-2.8.3,1.3,0,4-4.4,8.5-.3-4.2,1.1-6.7,2.4-8.1"/><path class="cls-18" d="M625.6,291.3c-2-.6-4.9-2.2-8.2-5.9,5.8,1.4,8.5,3.3,9.8,4.7-.6-1.3-1-4,2.6-7.7,1.5,4.3.5,6.5-.5,7.7,1.8-.7,4.8-1.2,9.7-.7a19.45,19.45,0,0,1-9.2,2.8,10.73,10.73,0,0,1,4.1,7.5c-5.3-3.5-6.2-6.1-6.3-7.5-.5,1.3-2.2,3.4-8.3,4.7,1.9-3.8,4.5-5.1,6.3-5.6"/><path class="cls-19" d="M626.7,281.8c1.8,1,5,2,9.9,1.8-5-3.2-8.3-3.8-10.1-3.8,1.4-.5,3.6-2,3.8-7.2-4.1,1.9-5.1,4.1-5.2,5.7-.8-1.8-2.5-4.3-6.2-7.5a18.79,18.79,0,0,0,4.3,8.5,10.62,10.62,0,0,0-8.2,2.3c6.2,1.4,8.7.2,9.7-.7-.6,1.2-.9,3.9,2.4,9.2,1.4-3.9.6-6.7-.4-8.3"/><path class="cls-19" d="M610.7,283.6c-1.6.5-4.3.8-8.3-.2,4.5-1.7,7.3-1.7,8.8-1.4-1-.6-2.6-2.2-1.9-6.4,3,2.2,3.4,4.2,3.2,5.4.9-1.3,2.7-3.1,6.3-5a14.19,14.19,0,0,1-4.9,6.1c1.6,0,3.9.6,6.2,3.2-5.2.1-7.1-1.3-7.7-2.2.3,1.1.1,3.3-3.5,7a8.44,8.44,0,0,1,1.8-6.5"/><path class="cls-19" d="M616.3,297.5a16.11,16.11,0,0,1,7.6,3.3c-4.9-.1-7.4-1.2-8.6-2.1.7,1,1.5,3-.7,6.6-1.9-3.2-1.5-5.1-.9-6.2-1.3.9-3.7,1.8-7.7,2.2a15.51,15.51,0,0,1,6.9-3.8,8.5,8.5,0,0,1-4.5-5.3c4.8,1.9,6,3.9,6.3,5,.2-1.1,1.2-3.1,5.9-5.2-1.1,3.3-2.9,4.8-4.3,5.5"/><path class="cls-16" d="M900.1,131.3a14.87,14.87,0,0,1,8.2.8c-4.7,1.4-7.4,1.1-8.8.7,1,.7,2.4,2.4,1.4,6.5-2.8-2.4-3.1-4.4-2.8-5.6a17.16,17.16,0,0,1-6.6,4.5,17,17,0,0,1,5.3-5.8,8.74,8.74,0,0,1-6-3.6c5.2.3,6.9,1.8,7.5,2.7-.2-1.1.2-3.3,4-6.7a8.07,8.07,0,0,1-2.2,6.5"/><path class="cls-17" d="M897.9,126.3c2,.5,5.3.7,10-.7-5.6-1.8-9-1.6-10.8-1.1,1.2-.8,3-2.9,1.9-7.9-3.5,2.9-3.9,5.3-3.6,6.8-1.2-1.5-3.5-3.6-7.9-5.7,2.2,4,4.6,6.1,6.4,7.1-1.9.1-4.7,1-7.4,4.3,6.3-.2,8.5-2,9.3-3.1-.2,1.3.1,4,4.7,8.3.2-4.2-1.3-6.7-2.6-8"/><path class="cls-18" d="M882,125.6c-2,.6-5.3.9-10.1-.4,5.6-2,8.9-1.9,10.7-1.5-1.3-.8-3.1-2.8-2.1-7.8,3.6,2.7,4,5.2,3.8,6.7,1.1-1.6,3.4-3.7,7.7-6a19.51,19.51,0,0,1-6.1,7.4,10.31,10.31,0,0,1,7.5,4c-6.3,0-8.6-1.7-9.4-2.8.3,1.3,0,4-4.4,8.5-.2-4.2,1.2-6.7,2.4-8.1"/><path class="cls-18" d="M900.2,125.7c-2-.6-4.9-2.2-8.2-5.9,5.8,1.4,8.5,3.3,9.8,4.7-.6-1.3-1-4,2.6-7.7,1.5,4.3.5,6.5-.5,7.7,1.8-.7,4.8-1.2,9.7-.7a19.45,19.45,0,0,1-9.2,2.8,10.73,10.73,0,0,1,4.1,7.5c-5.3-3.5-6.2-6.1-6.3-7.5-.5,1.3-2.2,3.4-8.3,4.7,1.9-3.9,4.5-5.2,6.3-5.6"/><path class="cls-19" d="M901.3,116.2c1.8,1,5,2,9.9,1.9-5-3.2-8.3-3.8-10.1-3.8,1.4-.5,3.6-2,3.8-7.2-4.1,1.9-5.1,4.1-5.2,5.7-.8-1.8-2.5-4.3-6.2-7.5a18.79,18.79,0,0,0,4.3,8.5,10.62,10.62,0,0,0-8.2,2.3c6.2,1.4,8.7.2,9.7-.7-.6,1.2-.9,3.9,2.4,9.2,1.4-4,.5-6.8-.4-8.4"/><path class="cls-19" d="M885.3,118c-1.6.5-4.3.8-8.3-.2,4.5-1.7,7.3-1.7,8.8-1.4-1-.6-2.6-2.2-1.9-6.4,3,2.2,3.4,4.2,3.2,5.4.9-1.3,2.7-3.1,6.3-5a14.19,14.19,0,0,1-4.9,6.1c1.6,0,3.9.6,6.2,3.2-5.2.1-7.1-1.3-7.7-2.2.3,1.1.1,3.3-3.5,7a7.93,7.93,0,0,1,1.8-6.5"/><path class="cls-19" d="M890.9,131.8a16.11,16.11,0,0,1,7.6,3.3c-4.9-.1-7.4-1.2-8.6-2.1.7,1,1.5,3-.7,6.6-1.9-3.2-1.5-5.1-.9-6.2-1.3.9-3.7,1.8-7.7,2.2a15.51,15.51,0,0,1,6.9-3.8,8.5,8.5,0,0,1-4.5-5.3c4.8,1.9,6,3.9,6.3,5,.2-1.1,1.2-3.1,5.9-5.2-1.1,3.3-2.9,4.8-4.3,5.5"/><path class="cls-20" d="M1080.5,242.1l-.3-63.2a3.22,3.22,0,0,0-3.2-3.2l-12.9.1a3.22,3.22,0,0,0-3.2,3.2v.9h11.7a3.16,3.16,0,0,1,3.2,3.2l.2,55a3.16,3.16,0,0,1-3.2,3.2h-11.7v.9a3.22,3.22,0,0,0,3.2,3.2l12.9-.1a3.13,3.13,0,0,0,3.3-3.2"/><path class="cls-21" d="M1076,238l-.2-55a3.22,3.22,0,0,0-3.2-3.2l-11.7.1.3,61.4h11.7a3.23,3.23,0,0,0,3.1-3.3"/><path class="cls-20" d="M860.6,430.3a8.1,8.1,0,1,1-16.2-.4,7.58,7.58,0,0,1,1.9-5h-2a9.21,9.21,0,0,0-1.5,5,9.75,9.75,0,0,0,19.5.5,9.33,9.33,0,0,0-1.3-5h-2a7.23,7.23,0,0,1,1.6,4.9"/><path class="cls-21" d="M852.3,438.2a8.07,8.07,0,0,0,8.3-7.9,8.83,8.83,0,0,0-1.6-5.1l-12.7-.3a8.78,8.78,0,0,0-1.9,5,8.07,8.07,0,0,0,7.9,8.3"/><path class="cls-20" d="M883.8,414.5a8.1,8.1,0,1,1-15.3-.3l-1.9.6a10.21,10.21,0,0,0,.2,5.2,9.74,9.74,0,0,0,18.5-6.1,10,10,0,0,0-2.9-4.3l-1.9.6a7.89,7.89,0,0,1,3.3,4.3"/><path class="cls-21" d="M878.7,424.7a8.07,8.07,0,0,0,5.2-10.2,8.5,8.5,0,0,0-3.2-4.2l-12.1,4a8,8,0,0,0,10.1,10.4"/><path class="cls-20" d="M842.6,349.8a8.12,8.12,0,1,0-14.5,7.3,7.59,7.59,0,0,0,3.8,3.7l-1.8.9a8.87,8.87,0,0,1-3.5-3.9,9.73,9.73,0,1,1,17.4-8.7,10.14,10.14,0,0,1,1,5.1l-1.8.9a7,7,0,0,0-.6-5.3"/><path class="cls-21" d="M831.7,346.2a8.13,8.13,0,0,1,10.9,3.6,8.84,8.84,0,0,1,.7,5.3l-11.4,5.7a7.59,7.59,0,0,1-3.8-3.7,8.13,8.13,0,0,1,3.6-10.9"/><path class="cls-20" d="M868.7,346.9a8.11,8.11,0,0,0-16.1,1.9,8.35,8.35,0,0,0,2.3,4.8l-1.9.2a9,9,0,0,1-2-4.8,9.72,9.72,0,1,1,18.5,2.8l-2,.2a7.5,7.5,0,0,0,1.2-5.1"/><path class="cls-21" d="M859.7,339.8a8,8,0,0,1,9,7.1,8.34,8.34,0,0,1-1.1,5.2L855,353.6a8.06,8.06,0,0,1-2.3-4.8,8,8,0,0,1,7-9"/><path class="cls-20" d="M900,372a8.12,8.12,0,0,0-7.3-14.5,7.59,7.59,0,0,0-3.7,3.8l-.9-1.8A9.51,9.51,0,0,1,892,356a9.73,9.73,0,1,1,8.7,17.4,10.14,10.14,0,0,1-5.1,1l-.9-1.8a7.58,7.58,0,0,0,5.3-.6"/><path class="cls-21" d="M903.6,361.1A8.13,8.13,0,0,1,900,372a8.84,8.84,0,0,1-5.3.7L889,361.3a7.59,7.59,0,0,1,3.7-3.8,8.13,8.13,0,0,1,10.9,3.6"/><path class="cls-20" d="M902.9,398.1A8.11,8.11,0,1,0,901,382a8.35,8.35,0,0,0-4.8,2.3l-.2-1.9a9,9,0,0,1,4.8-2,9.72,9.72,0,1,1,2.3,19.3,10.2,10.2,0,0,1-5.2-.8l-.2-2a7.77,7.77,0,0,0,5.2,1.2"/><path class="cls-21" d="M910,389.1a8.1,8.1,0,0,1-7.1,9,8.34,8.34,0,0,1-5.2-1.1l-1.5-12.6a8.06,8.06,0,0,1,4.8-2.3,7.89,7.89,0,0,1,9,7"/><path class="cls-20" d="M808.5,394.4a8.1,8.1,0,0,1,.4-16.2,7.58,7.58,0,0,1,5,1.9v-2a9.21,9.21,0,0,0-5-1.5,9.75,9.75,0,1,0-.5,19.5,9.93,9.93,0,0,0,5.1-1.3v-2a8.75,8.75,0,0,1-5,1.6"/><path class="cls-21" d="M800.5,386.1a8.07,8.07,0,0,0,7.9,8.3,8.83,8.83,0,0,0,5.1-1.6l.3-12.7a8.78,8.78,0,0,0-5-1.9,8.13,8.13,0,0,0-8.3,7.9"/><path class="cls-20" d="M816.9,419.2a8.1,8.1,0,1,1,.3-15.3l-.6-1.9a10.21,10.21,0,0,0-5.2.2,9.74,9.74,0,1,0,6.1,18.5,10,10,0,0,0,4.3-2.9l-.6-1.9a7.78,7.78,0,0,1-4.3,3.3"/><path class="cls-21" d="M806.6,414.1a8.07,8.07,0,0,0,10.2,5.2,8.5,8.5,0,0,0,4.2-3.2L817,404a8,8,0,0,0-10.4,10.1"/><rect class="cls-22" x="822.63" y="353.58" width="64.3" height="64.3" transform="translate(-63.53 195.63) rotate(-12.59)"/><path class="cls-16" d="M860.2,390.7a10.65,10.65,0,0,1,5.6.5c-3.2.9-5,.8-6,.5.7.5,1.6,1.6.9,4.5-1.9-1.6-2.1-3-1.9-3.8a12.36,12.36,0,0,1-4.5,3.1,10.62,10.62,0,0,1,3.6-3.9,5.82,5.82,0,0,1-4.1-2.5c3.5.2,4.7,1.2,5.1,1.9-.1-.7.1-2.3,2.7-4.6a4.67,4.67,0,0,1-1.4,4.3"/><path class="cls-17" d="M858.7,387.3a13.36,13.36,0,0,0,6.9-.5c-3.9-1.2-6.1-1.1-7.4-.8.8-.6,2-2,1.3-5.4-2.4,2-2.6,3.6-2.5,4.6a16,16,0,0,0-5.4-3.9,13.51,13.51,0,0,0,4.3,4.9,7.16,7.16,0,0,0-5,2.9c4.3-.2,5.8-1.4,6.3-2.1-.2.9.1,2.8,3.2,5.7a6.67,6.67,0,0,0-1.7-5.4"/><path class="cls-18" d="M847.9,386.9a12.73,12.73,0,0,1-6.9-.3c3.8-1.4,6.1-1.3,7.3-1-.9-.5-2.1-1.9-1.4-5.4,2.5,1.9,2.8,3.5,2.6,4.6a15.12,15.12,0,0,1,5.3-4.1,12.31,12.31,0,0,1-4.2,5,7.3,7.3,0,0,1,5.1,2.8c-4.3,0-5.9-1.2-6.4-1.9.2.9,0,2.8-3,5.8a6.47,6.47,0,0,1,1.6-5.5"/><path class="cls-18" d="M860.3,386.9a12.42,12.42,0,0,1-5.6-4c3.9,1,5.8,2.3,6.7,3.2-.4-.9-.7-2.7,1.7-5.3,1,2.9.4,4.5-.3,5.2,1.2-.5,3.3-.8,6.7-.5a13,13,0,0,1-6.3,1.9,7.24,7.24,0,0,1,2.8,5.1c-3.6-2.4-4.2-4.2-4.3-5.1-.3.9-1.5,2.3-5.7,3.2a6.54,6.54,0,0,1,4.3-3.7"/><path class="cls-19" d="M861,380.4a12.94,12.94,0,0,0,6.8,1.3c-3.4-2.2-5.7-2.6-6.9-2.6,1-.3,2.5-1.4,2.6-4.9-2.8,1.3-3.5,2.8-3.5,3.9a13.92,13.92,0,0,0-4.3-5.1,12.7,12.7,0,0,0,3,5.8,6.93,6.93,0,0,0-5.6,1.6c4.2.9,6,.1,6.7-.5-.4.8-.6,2.7,1.6,6.3.8-2.8.3-4.7-.4-5.8"/><path class="cls-19" d="M850.1,381.6a10.5,10.5,0,0,1-5.6-.1c3.1-1.2,5-1.1,6-.9-.7-.4-1.8-1.5-1.3-4.4,2,1.5,2.3,2.8,2.2,3.7a11.11,11.11,0,0,1,4.3-3.4,11.18,11.18,0,0,1-3.3,4.2,5.72,5.72,0,0,1,4.3,2.2c-3.5.1-4.8-.9-5.3-1.5.2.7,0,2.3-2.4,4.8a5.24,5.24,0,0,1,1.1-4.6"/><path class="cls-19" d="M853.9,391.1a10.29,10.29,0,0,1,5.2,2.3c-3.3-.1-5-.8-5.9-1.4.5.7,1,2.1-.5,4.5-1.3-2.2-1.1-3.5-.6-4.3a12,12,0,0,1-5.3,1.5,11.22,11.22,0,0,1,4.7-2.6,5.73,5.73,0,0,1-3.1-3.6c3.3,1.3,4.1,2.6,4.3,3.4.1-.7.8-2.1,4-3.5a5.43,5.43,0,0,1-2.8,3.7"/><path class="cls-21" d="M231.9,350h-8.6a.43.43,0,0,0-.4.4v.2a.43.43,0,0,0,.4.4h8.6a.43.43,0,0,0,.4-.4v-.2a.43.43,0,0,0-.4-.4"/><path class="cls-20" d="M177,318.5v-6.9a3.16,3.16,0,0,1,3.2-3.2h10.4v13.3H180.2a3.22,3.22,0,0,1-3.2-3.2"/><path class="cls-20" d="M173.3,309.5v11a.43.43,0,0,0,.4.4H175a.43.43,0,0,0,.4-.4v-11a.43.43,0,0,0-.4-.4h-1.3c-.2-.1-.4.1-.4.4"/><path class="cls-20" d="M179.4,324.6H188a.43.43,0,0,0,.4-.4V324a.43.43,0,0,0-.4-.4h-8.6a.43.43,0,0,0-.4.4v.2a.43.43,0,0,0,.4.4"/><path class="cls-20" d="M179.4,306.5H188a.43.43,0,0,0,.4-.4v-.2a.43.43,0,0,0-.4-.4h-8.6a.43.43,0,0,0-.4.4v.2a.43.43,0,0,0,.4.4"/><path class="cls-20" d="M234.4,311.6v6.9a3.16,3.16,0,0,1-3.2,3.2H220.8V308.4h10.4a3.22,3.22,0,0,1,3.2,3.2"/><path class="cls-20" d="M238,320.6v-11a.43.43,0,0,0-.4-.4h-1.3a.43.43,0,0,0-.4.4v11a.43.43,0,0,0,.4.4h1.3a.43.43,0,0,0,.4-.4"/><path class="cls-20" d="M231.9,305.5h-8.6a.43.43,0,0,0-.4.4v.2a.43.43,0,0,0,.4.4h8.6a.43.43,0,0,0,.4-.4v-.2a.43.43,0,0,0-.4-.4"/><path class="cls-20" d="M231.9,323.5h-8.6a.43.43,0,0,0-.4.4v.2a.43.43,0,0,0,.4.4h8.6a.43.43,0,0,0,.4-.4v-.2a.43.43,0,0,0-.4-.4"/><path class="cls-20" d="M177,363v-6.9a3.16,3.16,0,0,1,3.2-3.2h10.4v13.3H180.2A3.1,3.1,0,0,1,177,363"/><path class="cls-20" d="M173.3,354.1v11a.43.43,0,0,0,.4.4H175a.43.43,0,0,0,.4-.4v-11a.43.43,0,0,0-.4-.4h-1.3c-.2-.1-.4.1-.4.4"/><path class="cls-20" d="M179.4,369.2H188a.43.43,0,0,0,.4-.4v-.2a.43.43,0,0,0-.4-.4h-8.6a.43.43,0,0,0-.4.4v.2a.43.43,0,0,0,.4.4"/><path class="cls-20" d="M179.4,351.1H188a.43.43,0,0,0,.4-.4v-.2a.43.43,0,0,0-.4-.4h-8.6a.43.43,0,0,0-.4.4v.2a.43.43,0,0,0,.4.4"/><path class="cls-20" d="M234.4,356.2v6.9a3.16,3.16,0,0,1-3.2,3.2H220.8V353h10.4a3.16,3.16,0,0,1,3.2,3.2"/><path class="cls-20" d="M238,365.2v-11a.43.43,0,0,0-.4-.4h-1.3a.43.43,0,0,0-.4.4v11a.43.43,0,0,0,.4.4h1.3a.43.43,0,0,0,.4-.4"/><path class="cls-20" d="M231.9,368.1h-8.6a.43.43,0,0,0-.4.4v.2a.43.43,0,0,0,.4.4h8.6a.43.43,0,0,0,.4-.4v-.2a.43.43,0,0,0-.4-.4"/><rect class="cls-22" x="183.3" y="292.8" width="21.4" height="42.9"/><rect class="cls-22" x="206.3" y="292.8" width="21.4" height="42.9"/><rect class="cls-22" x="183.3" y="337.4" width="21.4" height="42.9"/><rect class="cls-22" x="206.3" y="337.4" width="21.4" height="42.9"/><path class="cls-21" d="M341.3,350h-8.6a.43.43,0,0,0-.4.4v.2a.43.43,0,0,0,.4.4h8.6a.43.43,0,0,0,.4-.4v-.2a.43.43,0,0,0-.4-.4"/><path class="cls-20" d="M286.3,318.5v-6.9a3.16,3.16,0,0,1,3.2-3.2h10.4v13.3H289.5a3.36,3.36,0,0,1-3.2-3.2"/><path class="cls-20" d="M282.7,309.5v11a.43.43,0,0,0,.4.4h1.3a.43.43,0,0,0,.4-.4v-11a.43.43,0,0,0-.4-.4h-1.3c-.2-.1-.4.1-.4.4"/><path class="cls-20" d="M288.8,324.6h8.6a.43.43,0,0,0,.4-.4V324a.43.43,0,0,0-.4-.4h-8.6a.43.43,0,0,0-.4.4v.2a.43.43,0,0,0,.4.4"/><path class="cls-20" d="M288.8,306.5h8.6a.43.43,0,0,0,.4-.4v-.2a.43.43,0,0,0-.4-.4h-8.6a.43.43,0,0,0-.4.4v.2a.43.43,0,0,0,.4.4"/><path class="cls-20" d="M343.8,311.6v6.9a3.16,3.16,0,0,1-3.2,3.2H330.2V308.4h10.4a3.22,3.22,0,0,1,3.2,3.2"/><path class="cls-20" d="M347.4,320.6v-11a.43.43,0,0,0-.4-.4h-1.3a.43.43,0,0,0-.4.4v11a.43.43,0,0,0,.4.4H347a.43.43,0,0,0,.4-.4"/><path class="cls-20" d="M341.3,305.5h-8.6a.43.43,0,0,0-.4.4v.2a.43.43,0,0,0,.4.4h8.6a.43.43,0,0,0,.4-.4v-.2a.43.43,0,0,0-.4-.4"/><path class="cls-20" d="M341.3,323.5h-8.6a.43.43,0,0,0-.4.4v.2a.43.43,0,0,0,.4.4h8.6a.43.43,0,0,0,.4-.4v-.2a.43.43,0,0,0-.4-.4"/><path class="cls-20" d="M286.3,363v-6.9a3.16,3.16,0,0,1,3.2-3.2h10.4v13.3H289.5a3.22,3.22,0,0,1-3.2-3.2"/><path class="cls-20" d="M282.7,354.1v11a.43.43,0,0,0,.4.4h1.3a.43.43,0,0,0,.4-.4v-11a.43.43,0,0,0-.4-.4h-1.3c-.2-.1-.4.1-.4.4"/><path class="cls-20" d="M288.8,369.2h8.6a.43.43,0,0,0,.4-.4v-.2a.43.43,0,0,0-.4-.4h-8.6a.43.43,0,0,0-.4.4v.2a.43.43,0,0,0,.4.4"/><path class="cls-20" d="M288.8,351.1h8.6a.43.43,0,0,0,.4-.4v-.2a.43.43,0,0,0-.4-.4h-8.6a.43.43,0,0,0-.4.4v.2a.43.43,0,0,0,.4.4"/><path class="cls-20" d="M343.8,356.2v6.9a3.16,3.16,0,0,1-3.2,3.2H330.2V353h10.4a3.16,3.16,0,0,1,3.2,3.2"/><path class="cls-20" d="M347.4,365.2v-11a.43.43,0,0,0-.4-.4h-1.3a.43.43,0,0,0-.4.4v11a.43.43,0,0,0,.4.4H347a.43.43,0,0,0,.4-.4"/><path class="cls-20" d="M341.3,368.1h-8.6a.43.43,0,0,0-.4.4v.2a.43.43,0,0,0,.4.4h8.6a.43.43,0,0,0,.4-.4v-.2a.43.43,0,0,0-.4-.4"/><rect class="cls-22" x="292.7" y="292.8" width="21.4" height="42.9"/><rect class="cls-22" x="315.7" y="292.8" width="21.4" height="42.9"/><rect class="cls-22" x="292.7" y="337.4" width="21.4" height="42.9"/><rect class="cls-22" x="315.7" y="337.4" width="21.4" height="42.9"/><path class="cls-21" d="M102.3,155.7H93.7a.43.43,0,0,0-.4.4v.2a.43.43,0,0,0,.4.4h8.6a.43.43,0,0,0,.4-.4v-.2c.1-.2-.1-.4-.4-.4"/><path class="cls-20" d="M47.4,124.1v-6.9a3.16,3.16,0,0,1,3.2-3.2H61v13.3H50.6a3.22,3.22,0,0,1-3.2-3.2"/><path class="cls-20" d="M43.8,115.1v11a.43.43,0,0,0,.4.4h1.3a.43.43,0,0,0,.4-.4v-11a.43.43,0,0,0-.4-.4H44.2a.43.43,0,0,0-.4.4"/><path class="cls-20" d="M49.9,130.2h8.6a.43.43,0,0,0,.4-.4v-.2a.43.43,0,0,0-.4-.4H49.9a.43.43,0,0,0-.4.4v.2a.37.37,0,0,0,.4.4"/><path class="cls-20" d="M49.9,112.2h8.6a.43.43,0,0,0,.4-.4v-.2a.43.43,0,0,0-.4-.4H49.9a.43.43,0,0,0-.4.4v.2a.37.37,0,0,0,.4.4"/><path class="cls-20" d="M104.8,117.2v6.9a3.16,3.16,0,0,1-3.2,3.2H91.2V114h10.4a3.16,3.16,0,0,1,3.2,3.2"/><path class="cls-20" d="M108.5,126.2v-11a.43.43,0,0,0-.4-.4h-1.3a.43.43,0,0,0-.4.4v11a.43.43,0,0,0,.4.4h1.3a.43.43,0,0,0,.4-.4"/><path class="cls-20" d="M102.3,111.1H93.7a.43.43,0,0,0-.4.4v.2a.43.43,0,0,0,.4.4h8.6a.43.43,0,0,0,.4-.4v-.2c.1-.2-.1-.4-.4-.4"/><path class="cls-20" d="M102.3,129.1H93.7a.43.43,0,0,0-.4.4v.2a.43.43,0,0,0,.4.4h8.6a.43.43,0,0,0,.4-.4v-.2c.1-.2-.1-.4-.4-.4"/><path class="cls-20" d="M47.4,168.7v-6.9a3.16,3.16,0,0,1,3.2-3.2H61v13.3H50.6a3.22,3.22,0,0,1-3.2-3.2"/><path class="cls-20" d="M43.8,159.7v11a.43.43,0,0,0,.4.4h1.3a.43.43,0,0,0,.4-.4v-11a.43.43,0,0,0-.4-.4H44.2a.37.37,0,0,0-.4.4"/><path class="cls-20" d="M49.9,174.8h8.6a.43.43,0,0,0,.4-.4v-.2a.43.43,0,0,0-.4-.4H49.9a.43.43,0,0,0-.4.4v.2a.37.37,0,0,0,.4.4"/><path class="cls-20" d="M49.9,156.8h8.6a.43.43,0,0,0,.4-.4v-.2a.43.43,0,0,0-.4-.4H49.9a.43.43,0,0,0-.4.4v.2a.37.37,0,0,0,.4.4"/><path class="cls-20" d="M104.8,161.8v6.9a3.16,3.16,0,0,1-3.2,3.2H91.2V158.6h10.4a3.16,3.16,0,0,1,3.2,3.2"/><path class="cls-20" d="M108.5,170.8v-11a.43.43,0,0,0-.4-.4h-1.3a.43.43,0,0,0-.4.4v11a.43.43,0,0,0,.4.4h1.3a.43.43,0,0,0,.4-.4"/><path class="cls-20" d="M102.3,173.7H93.7a.43.43,0,0,0-.4.4v.2a.43.43,0,0,0,.4.4h8.6a.43.43,0,0,0,.4-.4v-.2c.1-.2-.1-.4-.4-.4"/><path class="cls-21" d="M217.1,155.7h-8.6a.43.43,0,0,0-.4.4v.2a.43.43,0,0,0,.4.4h8.6a.43.43,0,0,0,.4-.4v-.2c.1-.2-.1-.4-.4-.4"/><path class="cls-20" d="M162.2,124.1v-6.9a3.16,3.16,0,0,1,3.2-3.2h10.4v13.3H165.4a3.16,3.16,0,0,1-3.2-3.2"/><path class="cls-20" d="M158.5,115.1v11a.43.43,0,0,0,.4.4h1.3a.43.43,0,0,0,.4-.4v-11a.43.43,0,0,0-.4-.4h-1.3a.43.43,0,0,0-.4.4"/><path class="cls-20" d="M164.7,130.2h8.6a.43.43,0,0,0,.4-.4v-.2a.43.43,0,0,0-.4-.4h-8.6a.43.43,0,0,0-.4.4v.2c-.1.2.1.4.4.4"/><path class="cls-20" d="M164.7,112.2h8.6a.43.43,0,0,0,.4-.4v-.2a.43.43,0,0,0-.4-.4h-8.6a.43.43,0,0,0-.4.4v.2c-.1.2.1.4.4.4"/><path class="cls-20" d="M219.6,117.2v6.9a3.16,3.16,0,0,1-3.2,3.2H206V114h10.4a3.16,3.16,0,0,1,3.2,3.2"/><path class="cls-20" d="M223.2,126.2v-11a.43.43,0,0,0-.4-.4h-1.3a.43.43,0,0,0-.4.4v11a.43.43,0,0,0,.4.4h1.3a.37.37,0,0,0,.4-.4"/><path class="cls-20" d="M217.1,111.1h-8.6a.43.43,0,0,0-.4.4v.2a.43.43,0,0,0,.4.4h8.6a.43.43,0,0,0,.4-.4v-.2c.1-.2-.1-.4-.4-.4"/><path class="cls-20" d="M217.1,129.1h-8.6a.43.43,0,0,0-.4.4v.2a.43.43,0,0,0,.4.4h8.6a.43.43,0,0,0,.4-.4v-.2c.1-.2-.1-.4-.4-.4"/><path class="cls-20" d="M162.2,168.7v-6.9a3.16,3.16,0,0,1,3.2-3.2h10.4v13.3H165.4a3.16,3.16,0,0,1-3.2-3.2"/><path class="cls-20" d="M158.5,159.7v11a.43.43,0,0,0,.4.4h1.3a.43.43,0,0,0,.4-.4v-11a.43.43,0,0,0-.4-.4h-1.3a.37.37,0,0,0-.4.4"/><path class="cls-20" d="M164.7,174.8h8.6a.43.43,0,0,0,.4-.4v-.2a.43.43,0,0,0-.4-.4h-8.6a.43.43,0,0,0-.4.4v.2c-.1.2.1.4.4.4"/><path class="cls-20" d="M164.7,156.8h8.6a.43.43,0,0,0,.4-.4v-.2a.43.43,0,0,0-.4-.4h-8.6a.43.43,0,0,0-.4.4v.2c-.1.2.1.4.4.4"/><path class="cls-20" d="M219.6,161.8v6.9a3.16,3.16,0,0,1-3.2,3.2H206V158.6h10.4a3.16,3.16,0,0,1,3.2,3.2"/><path class="cls-20" d="M223.2,170.8v-11a.43.43,0,0,0-.4-.4h-1.3a.43.43,0,0,0-.4.4v11a.43.43,0,0,0,.4.4h1.3a.37.37,0,0,0,.4-.4"/><path class="cls-20" d="M217.1,173.7h-8.6a.43.43,0,0,0-.4.4v.2a.43.43,0,0,0,.4.4h8.6a.43.43,0,0,0,.4-.4v-.2c.1-.2-.1-.4-.4-.4"/><path class="cls-21" d="M334.2,155.7h-8.6a.43.43,0,0,0-.4.4v.2a.43.43,0,0,0,.4.4h8.6a.43.43,0,0,0,.4-.4v-.2a.43.43,0,0,0-.4-.4"/><path class="cls-20" d="M279.2,124.1v-6.9a3.16,3.16,0,0,1,3.2-3.2h10.4v13.3H282.4a3.22,3.22,0,0,1-3.2-3.2"/><path class="cls-20" d="M275.6,115.1v11a.43.43,0,0,0,.4.4h1.3a.43.43,0,0,0,.4-.4v-11a.43.43,0,0,0-.4-.4H276a.43.43,0,0,0-.4.4"/><path class="cls-20" d="M281.7,130.2h8.6a.43.43,0,0,0,.4-.4v-.2a.43.43,0,0,0-.4-.4h-8.6a.43.43,0,0,0-.4.4v.2a.43.43,0,0,0,.4.4"/><path class="cls-20" d="M281.7,112.2h8.6a.43.43,0,0,0,.4-.4v-.2a.43.43,0,0,0-.4-.4h-8.6a.43.43,0,0,0-.4.4v.2a.43.43,0,0,0,.4.4"/><path class="cls-20" d="M336.7,117.2v6.9a3.16,3.16,0,0,1-3.2,3.2H323.1V114h10.4a3.22,3.22,0,0,1,3.2,3.2"/><path class="cls-20" d="M340.3,126.2v-11a.43.43,0,0,0-.4-.4h-1.3a.43.43,0,0,0-.4.4v11a.43.43,0,0,0,.4.4h1.3a.43.43,0,0,0,.4-.4"/><path class="cls-20" d="M334.2,111.1h-8.6a.43.43,0,0,0-.4.4v.2a.43.43,0,0,0,.4.4h8.6a.43.43,0,0,0,.4-.4v-.2a.43.43,0,0,0-.4-.4"/><path class="cls-20" d="M334.2,129.1h-8.6a.43.43,0,0,0-.4.4v.2a.43.43,0,0,0,.4.4h8.6a.43.43,0,0,0,.4-.4v-.2a.43.43,0,0,0-.4-.4"/><path class="cls-20" d="M279.2,168.7v-6.9a3.16,3.16,0,0,1,3.2-3.2h10.4v13.3H282.4a3.22,3.22,0,0,1-3.2-3.2"/><path class="cls-20" d="M275.6,159.7v11a.43.43,0,0,0,.4.4h1.3a.43.43,0,0,0,.4-.4v-11a.43.43,0,0,0-.4-.4H276a.37.37,0,0,0-.4.4"/><path class="cls-20" d="M281.7,174.8h8.6a.43.43,0,0,0,.4-.4v-.2a.43.43,0,0,0-.4-.4h-8.6a.43.43,0,0,0-.4.4v.2a.43.43,0,0,0,.4.4"/><path class="cls-20" d="M281.7,156.8h8.6a.43.43,0,0,0,.4-.4v-.2a.43.43,0,0,0-.4-.4h-8.6a.43.43,0,0,0-.4.4v.2a.43.43,0,0,0,.4.4"/><path class="cls-20" d="M336.7,161.8v6.9a3.16,3.16,0,0,1-3.2,3.2H323.1V158.6h10.4a3.22,3.22,0,0,1,3.2,3.2"/><path class="cls-20" d="M340.3,170.8v-11a.43.43,0,0,0-.4-.4h-1.3a.43.43,0,0,0-.4.4v11a.43.43,0,0,0,.4.4h1.3a.43.43,0,0,0,.4-.4"/><path class="cls-20" d="M334.2,173.7h-8.6a.43.43,0,0,0-.4.4v.2a.43.43,0,0,0,.4.4h8.6a.43.43,0,0,0,.4-.4v-.2a.43.43,0,0,0-.4-.4"/><path class="cls-21" d="M445.1,155.7h-8.7a.43.43,0,0,0-.4.4v.2a.43.43,0,0,0,.4.4H445a.43.43,0,0,0,.4-.4v-.2c.1-.2-.1-.4-.3-.4"/><path class="cls-20" d="M390.1,124.1v-6.9a3.16,3.16,0,0,1,3.2-3.2h10.4v13.3H393.3a3.22,3.22,0,0,1-3.2-3.2"/><path class="cls-20" d="M386.5,115.1v11a.43.43,0,0,0,.4.4h1.3a.43.43,0,0,0,.4-.4v-11a.43.43,0,0,0-.4-.4h-1.3a.43.43,0,0,0-.4.4"/><path class="cls-20" d="M392.6,130.2h8.6a.43.43,0,0,0,.4-.4v-.2a.43.43,0,0,0-.4-.4h-8.6a.43.43,0,0,0-.4.4v.2a.43.43,0,0,0,.4.4"/><path class="cls-20" d="M392.6,112.2h8.6a.43.43,0,0,0,.4-.4v-.2a.43.43,0,0,0-.4-.4h-8.6a.43.43,0,0,0-.4.4v.2a.43.43,0,0,0,.4.4"/><path class="cls-20" d="M447.6,117.2v6.9a3.16,3.16,0,0,1-3.2,3.2H434V114h10.4a3.22,3.22,0,0,1,3.2,3.2"/><path class="cls-20" d="M451.2,126.2v-11a.43.43,0,0,0-.4-.4h-1.3a.43.43,0,0,0-.4.4v11a.43.43,0,0,0,.4.4h1.3a.43.43,0,0,0,.4-.4"/><path class="cls-20" d="M445.1,111.1h-8.7a.43.43,0,0,0-.4.4v.2a.43.43,0,0,0,.4.4H445a.43.43,0,0,0,.4-.4v-.2c.1-.2-.1-.4-.3-.4"/><path class="cls-20" d="M445.1,129.1h-8.7a.43.43,0,0,0-.4.4v.2a.43.43,0,0,0,.4.4H445a.43.43,0,0,0,.4-.4v-.2c.1-.2-.1-.4-.3-.4"/><path class="cls-20" d="M390.1,168.7v-6.9a3.16,3.16,0,0,1,3.2-3.2h10.4v13.3H393.3a3.22,3.22,0,0,1-3.2-3.2"/><path class="cls-20" d="M386.5,159.7v11a.43.43,0,0,0,.4.4h1.3a.43.43,0,0,0,.4-.4v-11a.43.43,0,0,0-.4-.4h-1.3a.37.37,0,0,0-.4.4"/><path class="cls-20" d="M392.6,174.8h8.6a.43.43,0,0,0,.4-.4v-.2a.43.43,0,0,0-.4-.4h-8.6a.43.43,0,0,0-.4.4v.2a.43.43,0,0,0,.4.4"/><path class="cls-20" d="M392.6,156.8h8.6a.43.43,0,0,0,.4-.4v-.2a.43.43,0,0,0-.4-.4h-8.6a.43.43,0,0,0-.4.4v.2a.43.43,0,0,0,.4.4"/><path class="cls-20" d="M447.6,161.8v6.9a3.16,3.16,0,0,1-3.2,3.2H434V158.6h10.4a3.22,3.22,0,0,1,3.2,3.2"/><path class="cls-20" d="M451.2,170.8v-11a.43.43,0,0,0-.4-.4h-1.3a.43.43,0,0,0-.4.4v11a.43.43,0,0,0,.4.4h1.3a.43.43,0,0,0,.4-.4"/><path class="cls-20" d="M445.1,173.7h-8.7a.43.43,0,0,0-.4.4v.2a.43.43,0,0,0,.4.4H445a.43.43,0,0,0,.4-.4v-.2c.1-.2-.1-.4-.3-.4"/><path class="cls-21" d="M1205.4,131.3h-8.6a.43.43,0,0,0-.4.4v.2a.43.43,0,0,0,.4.4h8.6a.43.43,0,0,0,.4-.4v-.2c.1-.2-.1-.4-.4-.4"/><path class="cls-20" d="M1150.5,99.7V92.8a3.16,3.16,0,0,1,3.2-3.2h10.4v13.3h-10.4a3.16,3.16,0,0,1-3.2-3.2"/><path class="cls-20" d="M1146.9,90.7v11a.43.43,0,0,0,.4.4h1.3a.43.43,0,0,0,.4-.4v-11a.43.43,0,0,0-.4-.4h-1.3a.37.37,0,0,0-.4.4"/><path class="cls-20" d="M1153,105.8h8.6a.43.43,0,0,0,.4-.4v-.2a.43.43,0,0,0-.4-.4H1153a.43.43,0,0,0-.4.4v.2c-.1.2.1.4.4.4"/><path class="cls-20" d="M1153,87.8h8.6a.43.43,0,0,0,.4-.4v-.2a.43.43,0,0,0-.4-.4H1153a.43.43,0,0,0-.4.4v.2c-.1.2.1.4.4.4"/><path class="cls-20" d="M1207.9,92.8v6.9a3.16,3.16,0,0,1-3.2,3.2h-10.4V89.6h10.4a3.22,3.22,0,0,1,3.2,3.2"/><path class="cls-20" d="M1211.6,101.8v-11a.43.43,0,0,0-.4-.4h-1.3a.43.43,0,0,0-.4.4v11a.43.43,0,0,0,.4.4h1.3c.2.1.4-.1.4-.4"/><path class="cls-20" d="M1205.4,86.7h-8.6a.43.43,0,0,0-.4.4v.2a.43.43,0,0,0,.4.4h8.6a.43.43,0,0,0,.4-.4v-.2c.1-.2-.1-.4-.4-.4"/><path class="cls-20" d="M1205.4,104.8h-8.6a.43.43,0,0,0-.4.4v.2a.43.43,0,0,0,.4.4h8.6a.43.43,0,0,0,.4-.4v-.2c.1-.2-.1-.4-.4-.4"/><path class="cls-20" d="M1150.5,144.3v-6.9a3.16,3.16,0,0,1,3.2-3.2h10.4v13.3h-10.4a3.16,3.16,0,0,1-3.2-3.2"/><path class="cls-20" d="M1146.9,135.3v11a.43.43,0,0,0,.4.4h1.3a.43.43,0,0,0,.4-.4v-11a.43.43,0,0,0-.4-.4h-1.3a.37.37,0,0,0-.4.4"/><path class="cls-20" d="M1153,150.4h8.6a.43.43,0,0,0,.4-.4v-.2a.43.43,0,0,0-.4-.4H1153a.43.43,0,0,0-.4.4v.2c-.1.2.1.4.4.4"/><path class="cls-20" d="M1153,132.4h8.6a.43.43,0,0,0,.4-.4v-.3a.43.43,0,0,0-.4-.4H1153a.43.43,0,0,0-.4.4v.2c-.1.3.1.5.4.5"/><path class="cls-20" d="M1207.9,137.4v6.9a3.16,3.16,0,0,1-3.2,3.2h-10.4V134.2h10.4a3.16,3.16,0,0,1,3.2,3.2"/><path class="cls-20" d="M1211.6,146.4v-11a.43.43,0,0,0-.4-.4h-1.3a.43.43,0,0,0-.4.4v11a.43.43,0,0,0,.4.4h1.3a.43.43,0,0,0,.4-.4"/><path class="cls-20" d="M1205.4,149.3h-8.6a.43.43,0,0,0-.4.4v.2a.43.43,0,0,0,.4.4h8.6a.43.43,0,0,0,.4-.4v-.2c.1-.2-.1-.4-.4-.4"/><rect class="cls-22" x="1156.9" y="74" width="21.4" height="42.9"/><rect class="cls-22" x="1179.8" y="74" width="21.4" height="42.9"/><rect class="cls-22" x="1156.9" y="118.6" width="21.4" height="42.9"/><rect class="cls-22" x="1179.8" y="118.6" width="21.4" height="42.9"/><path class="cls-21" d="M1205.4,364h-8.6a.43.43,0,0,0-.4.4v.2a.43.43,0,0,0,.4.4h8.6a.43.43,0,0,0,.4-.4v-.2c.1-.2-.1-.4-.4-.4"/><path class="cls-20" d="M1150.5,332.4v-6.9a3.16,3.16,0,0,1,3.2-3.2h10.4v13.3h-10.4a3.16,3.16,0,0,1-3.2-3.2"/><path class="cls-20" d="M1146.9,323.4v11a.43.43,0,0,0,.4.4h1.3a.43.43,0,0,0,.4-.4v-11a.43.43,0,0,0-.4-.4h-1.3a.37.37,0,0,0-.4.4"/><path class="cls-20" d="M1153,338.5h8.6a.43.43,0,0,0,.4-.4v-.2a.43.43,0,0,0-.4-.4H1153a.43.43,0,0,0-.4.4v.2c-.1.2.1.4.4.4"/><path class="cls-20" d="M1153,320.5h8.6a.43.43,0,0,0,.4-.4v-.2a.43.43,0,0,0-.4-.4H1153a.43.43,0,0,0-.4.4v.2c-.1.2.1.4.4.4"/><path class="cls-20" d="M1207.9,325.5v6.9a3.16,3.16,0,0,1-3.2,3.2h-10.4V322.3h10.4a3.16,3.16,0,0,1,3.2,3.2"/><path class="cls-20" d="M1211.6,334.5v-11a.43.43,0,0,0-.4-.4h-1.3a.43.43,0,0,0-.4.4v11a.43.43,0,0,0,.4.4h1.3a.43.43,0,0,0,.4-.4"/><path class="cls-20" d="M1205.4,319.4h-8.6a.43.43,0,0,0-.4.4v.2a.43.43,0,0,0,.4.4h8.6a.43.43,0,0,0,.4-.4v-.2c.1-.2-.1-.4-.4-.4"/><path class="cls-20" d="M1205.4,337.4h-8.6a.43.43,0,0,0-.4.4v.2a.43.43,0,0,0,.4.4h8.6a.43.43,0,0,0,.4-.4v-.2c.1-.2-.1-.4-.4-.4"/><path class="cls-20" d="M1146.9,368v11a.43.43,0,0,0,.4.4h1.3a.43.43,0,0,0,.4-.4V368a.43.43,0,0,0-.4-.4h-1.3a.37.37,0,0,0-.4.4"/><path class="cls-20" d="M1153,365.1h8.6a.43.43,0,0,0,.4-.4v-.2a.43.43,0,0,0-.4-.4H1153a.43.43,0,0,0-.4.4v.2c-.1.2.1.4.4.4"/><rect class="cls-22" x="1156.9" y="306.7" width="21.4" height="42.9"/><rect class="cls-22" x="1179.8" y="306.7" width="21.4" height="42.9"/><path class="cls-20" d="M1150.5,377v-6.9a3.16,3.16,0,0,1,3.2-3.2h10.4v13.3h-10.4a3.16,3.16,0,0,1-3.2-3.2"/><path class="cls-20" d="M1153,383.1h8.6a.43.43,0,0,0,.4-.4v-.2a.43.43,0,0,0-.4-.4H1153a.43.43,0,0,0-.4.4v.2c-.1.2.1.4.4.4"/><path class="cls-20" d="M1207.9,370.1V377a3.16,3.16,0,0,1-3.2,3.2h-10.4V366.9h10.4a3.16,3.16,0,0,1,3.2,3.2"/><path class="cls-20" d="M1211.6,379.1v-11a.43.43,0,0,0-.4-.4h-1.3a.43.43,0,0,0-.4.4v11a.43.43,0,0,0,.4.4h1.3a.43.43,0,0,0,.4-.4"/><path class="cls-20" d="M1205.4,382h-8.6a.43.43,0,0,0-.4.4v.2a.43.43,0,0,0,.4.4h8.6a.43.43,0,0,0,.4-.4v-.2c.1-.2-.1-.4-.4-.4"/><rect class="cls-22" x="1156.9" y="351.3" width="21.4" height="42.9"/><rect class="cls-22" x="1179.8" y="351.3" width="21.4" height="42.9"/><path class="cls-20" d="M907.74,86.15v-6.9a3.16,3.16,0,0,1,3.2-3.2h10.4v13.3h-10.4a3.22,3.22,0,0,1-3.2-3.2"/><path class="cls-20" d="M904.14,77.15v11a.43.43,0,0,0,.4.4h1.3a.43.43,0,0,0,.4-.4v-11a.43.43,0,0,0-.4-.4h-1.3a.43.43,0,0,0-.4.4"/><path class="cls-20" d="M910.24,92.25h8.6a.43.43,0,0,0,.4-.4v-.2a.43.43,0,0,0-.4-.4h-8.6a.43.43,0,0,0-.4.4v.2a.43.43,0,0,0,.4.4"/><path class="cls-20" d="M965.14,79.25v6.9a3.16,3.16,0,0,1-3.2,3.2h-10.4V76.05h10.4a3.22,3.22,0,0,1,3.2,3.2"/><path class="cls-20" d="M968.84,88.25v-11a.43.43,0,0,0-.4-.4h-1.3a.43.43,0,0,0-.4.4v11a.43.43,0,0,0,.4.4h1.3c.2.1.4-.1.4-.4"/><path class="cls-20" d="M962.74,91.25h-8.6a.43.43,0,0,0-.4.4v.2a.43.43,0,0,0,.4.4h8.6a.43.43,0,0,0,.4-.4v-.2a.43.43,0,0,0-.4-.4"/><rect class="cls-22" x="914.14" y="60.45" width="21.4" height="42.9"/><rect class="cls-22" x="937.04" y="60.45" width="21.4" height="42.9"/><path class="cls-20" d="M934,30.2h6.9a3.16,3.16,0,0,1,3.2,3.2V43.8h-13.3V33.4a3.22,3.22,0,0,1,3.2-3.2"/><path class="cls-20" d="M943,26.5H932a.43.43,0,0,0-.4.4v1.3a.43.43,0,0,0,.4.4h11a.43.43,0,0,0,.4-.4V26.9c.1-.2-.1-.4-.4-.4"/><path class="cls-20" d="M946,32.6v8.6a.43.43,0,0,0,.4.4h.2a.43.43,0,0,0,.4-.4V32.6a.43.43,0,0,0-.4-.4h-.2a.43.43,0,0,0-.4.4"/><rect class="cls-22" x="915.16" y="36.9" width="42.9" height="21.4"/><path class="cls-20" d="M709.94,131a8.1,8.1,0,1,0,6.34,14.9,8.71,8.71,0,0,0,4-3.63L721,144a10.16,10.16,0,0,1-4,3.32,9.73,9.73,0,0,1-7.63-17.9,10.26,10.26,0,0,1,5.16-.73l.78,1.76a9.06,9.06,0,0,0-5.35.52"/><path class="cls-21" d="M705.66,141.58A8,8,0,0,1,709.94,131a8.28,8.28,0,0,1,5.34-.42l5.07,11.7a8.17,8.17,0,0,1-14.69-.66"/><path class="cls-20" d="M708.51,104.79a8.08,8.08,0,0,0,1,16.12,7.88,7.88,0,0,0,4.86-2.06l.16,1.92a10,10,0,0,1-4.94,1.75,9.75,9.75,0,0,1-1.3-19.45,10.06,10.06,0,0,1,5.13,1.08l.17,1.91a8.34,8.34,0,0,0-5.13-1.27"/><path class="cls-21" d="M700.88,113.36a8.1,8.1,0,0,1,7.53-8.58,7.72,7.72,0,0,1,5.11,1.48l.79,12.68a7.6,7.6,0,0,1-4.86,2.06,8.25,8.25,0,0,1-8.57-7.64"/><path class="cls-20" d="M701.8,79.74a8.08,8.08,0,1,0,1,16.12,7.88,7.88,0,0,0,4.86-2.06l.16,1.92a10,10,0,0,1-4.93,1.75A9.74,9.74,0,1,1,701.62,78a10.11,10.11,0,0,1,5.14,1.07l.16,1.91a8.33,8.33,0,0,0-5.12-1.27"/><path class="cls-21" d="M694.16,88.32a8.1,8.1,0,0,1,7.54-8.58,7.65,7.65,0,0,1,5.1,1.47l.8,12.69a7.69,7.69,0,0,1-4.87,2,8.24,8.24,0,0,1-8.57-7.63"/><path class="cls-20" d="M752.84,85.94a8.1,8.1,0,0,0-6.36-14.89,8.71,8.71,0,0,0-4,3.63l-.78-1.76a10.16,10.16,0,0,1,4-3.32,9.73,9.73,0,0,1,7.65,17.89,10.26,10.26,0,0,1-5.16.73l-.78-1.76a8.91,8.91,0,0,0,5.35-.52"/><path class="cls-21" d="M757.1,75.32a8,8,0,0,1-4.26,10.62,8.15,8.15,0,0,1-5.34.42l-5.09-11.69a8.17,8.17,0,0,1,14.69.65"/><path class="cls-20" d="M754.29,112.11A8.08,8.08,0,0,0,753.23,96a7.94,7.94,0,0,0-4.86,2.06l-.16-1.91a9.74,9.74,0,1,1,6.26,17.69,10.22,10.22,0,0,1-5.14-1.07l-.16-1.92a8.25,8.25,0,0,0,5.12,1.27"/><path class="cls-21" d="M761.92,103.53a8.11,8.11,0,0,1-7.53,8.59,7.77,7.77,0,0,1-5.11-1.47L748.48,98a7.65,7.65,0,0,1,4.86-2.06,8.25,8.25,0,0,1,8.58,7.63"/><path class="cls-20" d="M761,137.15A8.08,8.08,0,0,0,760,121a7.92,7.92,0,0,0-4.86,2.07l-.16-1.92a10,10,0,0,1,4.94-1.76,9.75,9.75,0,0,1,1.32,19.45,10.22,10.22,0,0,1-5.14-1.07l-.16-1.92a8.2,8.2,0,0,0,5.12,1.27"/><path class="cls-21" d="M768.66,128.57a8.11,8.11,0,0,1-7.53,8.59,7.75,7.75,0,0,1-5.11-1.47l-.8-12.69a7.65,7.65,0,0,1,4.86-2.06,8.26,8.26,0,0,1,8.58,7.63"/><path class="cls-20" d="M934.8,152.6l6.6-2a3.24,3.24,0,0,1,4,2.2l3,10h0l-12.7,3.8h0l-3-10a3.15,3.15,0,0,1,2.1-4"/><path class="cls-20" d="M942.4,146.6l-10.6,3.1c-.2.1-.4.3-.3.5l.4,1.2c.1.2.3.4.5.3l10.6-3.1c.2-.1.4-.3.3-.5l-.4-1.2c0-.2-.2-.3-.5-.3"/><path class="cls-20" d="M929.7,156.8l2.4,8.3c.1.2.3.4.5.3l.2-.1c.2-.1.4-.3.3-.5l-2.4-8.3c-.1-.2-.3-.4-.5-.3l-.2.1c-.3,0-.4.2-.3.5"/><path class="cls-20" d="M947,151.7l2.4,8.3c.1.2.3.4.5.3l.2-.1c.2-.1.4-.3.3-.5l-2.4-8.3c-.1-.2-.3-.4-.5-.3l-.2.1c-.3,0-.4.2-.3.5"/><path class="cls-20" d="M462.8,312.8h6.9a3.16,3.16,0,0,1,3.2,3.2v10.4H459.6V316a3.22,3.22,0,0,1,3.2-3.2"/><path class="cls-20" d="M471.8,309.1h-11a.43.43,0,0,0-.4.4v1.3a.43.43,0,0,0,.4.4h11a.43.43,0,0,0,.4-.4v-1.3c.1-.2-.1-.4-.4-.4"/><path class="cls-20" d="M456.7,315.3v8.6a.43.43,0,0,0,.4.4h.2a.43.43,0,0,0,.4-.4v-8.6a.43.43,0,0,0-.4-.4h-.2c-.2-.1-.4.1-.4.4"/><path class="cls-20" d="M474.8,315.3v8.6a.43.43,0,0,0,.4.4h.2a.43.43,0,0,0,.4-.4v-8.6a.43.43,0,0,0-.4-.4h-.2c-.2-.1-.4.1-.4.4"/><path class="cls-20" d="M469.7,370.2h-6.9a3.16,3.16,0,0,1-3.2-3.2V356.6h13.3V367a3.1,3.1,0,0,1-3.2,3.2"/><path class="cls-20" d="M460.7,373.8h11a.43.43,0,0,0,.4-.4v-1.3a.43.43,0,0,0-.4-.4h-11a.43.43,0,0,0-.4.4v1.3a.37.37,0,0,0,.4.4"/><path class="cls-20" d="M475.8,367.7v-8.6a.43.43,0,0,0-.4-.4h-.2a.43.43,0,0,0-.4.4v8.6a.43.43,0,0,0,.4.4h.2c.3.1.4-.1.4-.4"/><rect class="cls-22" x="897.66" y="157.65" width="94.6" height="21.4" transform="translate(-9.72 267.76) rotate(-16.05)"/><path class="cls-20" d="M457.8,367.7v-8.6a.43.43,0,0,0-.4-.4h-.2a.43.43,0,0,0-.4.4v8.6a.43.43,0,0,0,.4.4h.2c.2.1.4-.1.4-.4"/><rect class="cls-22" x="445.7" y="319.1" width="42.9" height="21.4"/><rect class="cls-22" x="445.7" y="342.1" width="42.9" height="21.4"/><rect class="cls-5" x="1249.8" y="181.7" width="3" height="105.6"/><path class="cls-21" d="M562,155.7h-8.6a.43.43,0,0,0-.4.4v.2a.43.43,0,0,0,.4.4H562a.43.43,0,0,0,.4-.4v-.2c.1-.2-.1-.4-.4-.4"/><path class="cls-20" d="M507.1,124.1v-6.9a3.16,3.16,0,0,1,3.2-3.2h10.4v13.3H510.3a3.16,3.16,0,0,1-3.2-3.2"/><path class="cls-20" d="M503.4,115.1v11a.43.43,0,0,0,.4.4h1.3a.43.43,0,0,0,.4-.4v-11a.43.43,0,0,0-.4-.4h-1.3a.43.43,0,0,0-.4.4"/><path class="cls-20" d="M509.6,130.2h8.6a.43.43,0,0,0,.4-.4v-.2a.43.43,0,0,0-.4-.4h-8.6a.43.43,0,0,0-.4.4v.2c-.1.2.1.4.4.4"/><path class="cls-20" d="M509.6,112.2h8.6a.43.43,0,0,0,.4-.4v-.2a.43.43,0,0,0-.4-.4h-8.6a.43.43,0,0,0-.4.4v.2c-.1.2.1.4.4.4"/><path class="cls-20" d="M564.5,117.2v6.9a3.16,3.16,0,0,1-3.2,3.2H550.9V114h10.4a3.16,3.16,0,0,1,3.2,3.2"/><path class="cls-20" d="M568.2,126.2v-11a.43.43,0,0,0-.4-.4h-1.4a.43.43,0,0,0-.4.4v11a.43.43,0,0,0,.4.4h1.3a.46.46,0,0,0,.5-.4"/><path class="cls-20" d="M562,111.1h-8.6a.43.43,0,0,0-.4.4v.2a.43.43,0,0,0,.4.4H562a.43.43,0,0,0,.4-.4v-.2c.1-.2-.1-.4-.4-.4"/><path class="cls-20" d="M562,129.1h-8.6a.43.43,0,0,0-.4.4v.2a.43.43,0,0,0,.4.4H562a.43.43,0,0,0,.4-.4v-.2c.1-.2-.1-.4-.4-.4"/><path class="cls-20" d="M507.1,168.7v-6.9a3.16,3.16,0,0,1,3.2-3.2h10.4v13.3H510.3a3.16,3.16,0,0,1-3.2-3.2"/><path class="cls-20" d="M503.4,159.7v11a.43.43,0,0,0,.4.4h1.3a.43.43,0,0,0,.4-.4v-11a.43.43,0,0,0-.4-.4h-1.3a.37.37,0,0,0-.4.4"/><path class="cls-20" d="M509.6,174.8h8.6a.43.43,0,0,0,.4-.4v-.2a.43.43,0,0,0-.4-.4h-8.6a.43.43,0,0,0-.4.4v.2c-.1.2.1.4.4.4"/><path class="cls-20" d="M509.6,156.8h8.6a.43.43,0,0,0,.4-.4v-.2a.43.43,0,0,0-.4-.4h-8.6a.43.43,0,0,0-.4.4v.2c-.1.2.1.4.4.4"/><path class="cls-20" d="M564.5,161.8v6.9a3.16,3.16,0,0,1-3.2,3.2H550.9V158.6h10.4a3.16,3.16,0,0,1,3.2,3.2"/><path class="cls-20" d="M568.2,170.8v-11a.43.43,0,0,0-.4-.4h-1.4a.43.43,0,0,0-.4.4v11a.43.43,0,0,0,.4.4h1.3a.46.46,0,0,0,.5-.4"/><path class="cls-20" d="M562,173.7h-8.6a.43.43,0,0,0-.4.4v.2a.43.43,0,0,0,.4.4H562a.43.43,0,0,0,.4-.4v-.2c.1-.2-.1-.4-.4-.4"/><rect class="cls-22" x="53.8" y="98.4" width="21.4" height="42.9"/><rect class="cls-22" x="76.7" y="98.4" width="21.4" height="42.9"/><rect class="cls-22" x="53.8" y="143" width="21.4" height="42.9"/><rect class="cls-22" x="76.7" y="143" width="21.4" height="42.9"/><rect class="cls-22" x="168.5" y="98.4" width="21.4" height="42.9"/><rect class="cls-22" x="191.5" y="98.4" width="21.4" height="42.9"/><rect class="cls-22" x="168.5" y="143" width="21.4" height="42.9"/><rect class="cls-22" x="191.5" y="143" width="21.4" height="42.9"/><rect class="cls-22" x="285.6" y="98.4" width="21.4" height="42.9"/><rect class="cls-22" x="308.6" y="98.4" width="21.4" height="42.9"/><rect class="cls-22" x="285.6" y="143" width="21.4" height="42.9"/><rect class="cls-22" x="308.6" y="143" width="21.4" height="42.9"/><rect class="cls-22" x="396.5" y="98.4" width="21.4" height="42.9"/><rect class="cls-22" x="419.5" y="98.4" width="21.4" height="42.9"/><rect class="cls-22" x="396.5" y="143" width="21.4" height="42.9"/><rect class="cls-22" x="419.5" y="143" width="21.4" height="42.9"/><rect class="cls-22" x="513.4" y="98.4" width="21.4" height="42.9"/><rect class="cls-22" x="536.4" y="98.4" width="21.4" height="42.9"/><rect class="cls-22" x="513.4" y="143" width="21.4" height="42.9"/><rect class="cls-22" x="536.4" y="143" width="21.4" height="42.9"/><polygon class="cls-5" points="765.1 251.2 760.8 260.4 759.7 260.3 750.6 272.1 752.8 277.4 749.1 285.3 753.1 287.2 755.1 282.9 756.3 285.8 760.6 286.4 755.8 291.9 759.2 294.8 765.9 287.1 771.1 287.8 780.1 276 778.7 272.5 784 266.4 780.6 263.5 776.8 267.9 774.4 262.2 765.3 261 769.1 253.1 765.1 251.2"/><path class="cls-13" d="M873.8,362.5a2.7,2.7,0,1,1-2.7-2.7,2.69,2.69,0,0,1,2.7,2.7"/><path class="cls-23" d="M873.3,362.5a2.2,2.2,0,1,1-2.2-2.2,2.22,2.22,0,0,1,2.2,2.2"/><line class="cls-12" x1="873.8" y1="359.4" x2="872.8" y2="360.4"/><rect class="cls-13" x="872.58" y="359.61" width="1.4" height="0.6" transform="translate(1.33 723.04) rotate(-45.01)"/><path class="cls-24" d="M857.1,357.2a3.2,3.2,0,1,0,3.2,3.2,3.16,3.16,0,0,0-3.2-3.2"/><path class="cls-13" d="M858.6,361.6a2.7,2.7,0,1,1-2.7-2.7,2.69,2.69,0,0,1,2.7,2.7"/><path class="cls-23" d="M858.1,361.6a2.2,2.2,0,1,1-2.2-2.2,2.22,2.22,0,0,1,2.2,2.2"/><line class="cls-12" x1="858.6" y1="358.5" x2="857.6" y2="359.5"/><polygon class="cls-13" points="857.8 359.7 857.4 359.3 858.4 358.3 858.8 358.7 857.8 359.7"/><path class="cls-24" d="M870.1,401.6a3.2,3.2,0,1,0,3.2,3.2,3.22,3.22,0,0,0-3.2-3.2"/><path class="cls-13" d="M871.5,406a2.7,2.7,0,1,1-2.7-2.7,2.69,2.69,0,0,1,2.7,2.7"/><path class="cls-23" d="M871,406a2.2,2.2,0,1,1-2.2-2.2A2.22,2.22,0,0,1,871,406"/><line class="cls-12" x1="871.5" y1="402.9" x2="870.5" y2="403.9"/><polygon class="cls-13" points="870.7 404.1 870.3 403.7 871.3 402.7 871.7 403.1 870.7 404.1"/><path class="cls-24" d="M854.8,400.7a3.2,3.2,0,1,0,3.2,3.2,3.16,3.16,0,0,0-3.2-3.2"/><path class="cls-13" d="M856.3,405.1a2.7,2.7,0,1,1-2.7-2.7,2.69,2.69,0,0,1,2.7,2.7"/><path class="cls-23" d="M855.8,405.1a2.2,2.2,0,1,1-2.2-2.2,2.22,2.22,0,0,1,2.2,2.2"/><line class="cls-12" x1="856.3" y1="402" x2="855.3" y2="403"/><rect class="cls-13" x="855.12" y="402.29" width="1.4" height="0.6" transform="translate(-33.28 725.08) rotate(-45.13)"/><path class="cls-24" d="M832.2,377.6a3.2,3.2,0,1,0,3.2,3.2,3.22,3.22,0,0,0-3.2-3.2"/><path class="cls-13" d="M833.6,382a2.7,2.7,0,1,1-2.7-2.7,2.69,2.69,0,0,1,2.7,2.7"/><path class="cls-23" d="M833.1,382a2.2,2.2,0,1,1-2.2-2.2,2.22,2.22,0,0,1,2.2,2.2"/><line class="cls-12" x1="833.6" y1="378.9" x2="832.6" y2="379.9"/><rect class="cls-13" x="832.38" y="379.11" width="1.4" height="0.6" transform="translate(-24.23 700.32) rotate(-45.01)"/><path class="cls-25" d="M997.4,326.8a13.4,13.4,0,1,1,13.4,13.4,13.4,13.4,0,0,1-13.4-13.4"/><polygon class="cls-13" points="1010.8 332.8 1014.9 327 1012.4 327 1012.4 320.8 1010.8 320.8 1009.3 320.8 1009.3 327 1006.7 327 1010.8 332.8"/><rect class="cls-22" x="708.97" y="72.82" width="42.47" height="71.31" transform="translate(-7.59 133.51) rotate(-10.39)"/></g></g></svg>